<svg width="128" height="46" viewBox="0 0 128 46" fill="none" xmlns="http://www.w3.org/2000/svg">
<path fill-rule="evenodd" clip-rule="evenodd" d="M122.416 30.1694C122.418 29.3934 122.786 28.5991 123.588 27.7701C124.257 27.0785 125.094 26.6598 125.945 26.523C125.835 27.3785 125.444 28.229 124.774 28.9207C123.972 29.7491 123.191 30.1429 122.416 30.1694ZM124.539 31.1435C124.251 31.957 123.69 32.7055 122.889 33.2405C121.931 33.8814 121.084 34.1015 120.321 33.9642C120.486 33.2058 121.013 32.5069 121.972 31.866C122.772 31.331 123.678 31.0982 124.539 31.1435ZM120.137 37.0661C119.066 37.4908 118.192 37.5272 117.475 37.2322C117.795 36.5256 118.458 35.9531 119.53 35.5289C120.425 35.1748 121.359 35.1379 122.191 35.364C121.738 36.0987 121.032 36.712 120.137 37.0661ZM116.642 40.2255C115.505 40.4147 114.644 40.2663 114.004 39.8262C114.466 39.2034 115.235 38.7837 116.371 38.5945C117.321 38.4373 118.242 38.5984 119.007 38.9944C118.411 39.6171 117.591 40.0677 116.642 40.2255ZM112.561 42.5779C111.409 42.5228 110.598 42.1957 110.066 41.6309C110.649 41.1196 111.488 40.8714 112.64 40.926C113.6 40.9718 114.467 41.3242 115.132 41.873C114.418 42.3556 113.521 42.6237 112.561 42.5779ZM108.076 44.0158C106.962 43.7196 106.238 43.2288 105.836 42.5647C106.514 42.1874 107.387 42.1218 108.5 42.4185C109.431 42.6656 110.203 43.1924 110.738 43.8691C109.938 44.1907 109.005 44.2635 108.076 44.0158ZM106.772 39.1886C107.45 38.5063 108.292 38.0987 109.145 37.9729C109.024 38.8273 108.621 39.6723 107.942 40.3546C107.13 41.1725 106.343 41.5564 105.568 41.5719C105.58 40.7964 105.96 40.0065 106.772 39.1886ZM110.27 38.1334C110.79 37.3232 111.528 36.7473 112.334 36.4445C112.395 37.3055 112.181 38.2162 111.66 39.0264C111.038 39.9972 110.35 40.5382 109.595 40.7169C109.443 39.9558 109.648 39.1042 110.27 38.1334ZM113.469 36.364C113.806 35.4628 114.406 34.7441 115.13 34.2785C115.372 35.1064 115.353 36.0424 115.015 36.9442C114.611 38.0248 114.051 38.6982 113.352 39.0325C113.043 38.3204 113.063 37.4445 113.469 36.364ZM116.222 33.9603C116.363 33.0077 116.798 32.1793 117.408 31.5709C117.818 32.3299 117.996 33.2488 117.857 34.2013C117.688 35.3425 117.284 36.1191 116.669 36.5929C116.218 35.9619 116.054 35.102 116.222 33.9603ZM119.065 28.4441C119.626 29.0994 119.993 29.9604 120.057 30.9212C120.132 32.0723 119.9 32.9167 119.399 33.5097C118.825 32.9879 118.484 32.1815 118.409 31.0304C118.344 30.069 118.595 29.1672 119.065 28.4441ZM118.475 14.6948C119.335 14.7069 120.224 14.9998 120.986 15.5872C121.899 16.2904 122.38 17.0235 122.494 17.7907C121.723 17.8773 120.893 17.601 119.979 16.8972C119.216 16.3103 118.707 15.5254 118.475 14.6948ZM116.555 11.7219C117.4 11.552 118.33 11.6507 119.199 12.0644C120.241 12.5597 120.864 13.1747 121.136 13.9011C120.401 14.1482 119.532 14.0528 118.49 13.5575C117.621 13.1443 116.957 12.4847 116.555 11.7219ZM114.054 9.22051C114.844 8.87579 115.774 8.77651 116.71 8.99713C117.833 9.26188 118.57 9.73181 118.99 10.3843C118.324 10.7809 117.454 10.8713 116.332 10.6066C115.395 10.386 114.607 9.88128 114.054 9.22051ZM113.601 8.17696C112.639 8.15876 111.762 7.83168 111.083 7.30218C111.782 6.7986 112.67 6.50572 113.633 6.52392C114.785 6.54599 115.606 6.8499 116.153 7.39925C115.585 7.9271 114.754 8.19902 113.601 8.17696ZM111.547 4.98176C110.724 4.48425 110.129 3.76225 109.805 2.96304C110.662 2.8781 111.578 3.06894 112.402 3.56645C113.388 4.16269 113.948 4.83669 114.147 5.58682C113.391 5.75946 112.534 5.57855 111.547 4.98176ZM114.235 2.07337C115.02 2.42912 115.718 3.05239 116.182 3.89573C116.739 4.90619 116.886 5.76994 116.685 6.51896C115.943 6.29006 115.292 5.70485 114.735 4.69384C114.272 3.85105 114.117 2.92719 114.235 2.07337ZM118.237 4.77382C118.929 5.28677 119.48 6.04351 119.756 6.96573C120.088 8.07106 120.05 8.94584 119.695 9.63584C119.019 9.25581 118.506 8.54595 118.174 7.44117C117.898 6.51896 117.941 5.58351 118.237 4.77382ZM121.58 8.25693C122.15 8.90447 122.528 9.76049 122.604 10.7202C122.696 11.8708 122.474 12.718 121.982 13.3175C121.401 12.8035 121.05 12.002 120.958 10.8515C120.882 9.89177 121.12 8.98665 121.58 8.25693ZM120.732 20.4757C120.11 19.741 119.776 18.8668 119.724 18.0058C120.564 18.1988 121.371 18.6726 121.992 19.4073C122.737 20.2876 123.052 21.105 123.001 21.8794C122.23 21.8017 121.477 21.3565 120.732 20.4757ZM121.419 29.9195C120.749 29.5301 120.246 28.8137 119.928 27.7045C119.664 26.779 119.72 25.8441 120.026 25.0377C120.712 25.5606 121.253 26.3245 121.516 27.2505C121.833 28.3597 121.784 29.2345 121.419 29.9195ZM120.715 24.1331C120.262 23.2837 120.119 22.3582 120.249 21.5055C121.029 21.8717 121.718 22.5049 122.172 23.3543C122.715 24.3719 122.85 25.2373 122.638 25.9841C121.901 25.7448 121.258 25.1507 120.715 24.1331ZM122.961 14.772C123.089 13.8178 123.512 12.9833 124.115 12.3672C124.536 13.1201 124.725 14.0368 124.598 14.991C124.446 16.1349 124.051 16.9165 123.443 17.3991C122.983 16.7736 122.808 15.9159 122.961 14.772ZM125.729 16.9192C125.981 17.7444 125.974 18.6804 125.648 19.5866C125.258 20.6721 124.708 21.3532 124.013 21.6969C123.695 20.9887 123.704 20.1133 124.094 19.0273C124.42 18.1211 125.01 17.3947 125.729 16.9192ZM126.347 21.7095C126.421 22.5694 126.216 23.4828 125.709 24.3002C125.098 25.2793 124.418 25.8292 123.666 26.0183C123.504 25.2594 123.697 24.405 124.307 23.4255C124.815 22.6086 125.545 22.0228 126.347 21.7095ZM99.5203 40.3546C98.8426 39.6723 98.4387 38.8273 98.3185 37.9729C99.1704 38.0987 100.013 38.5063 100.691 39.1886C101.505 40.0065 101.883 40.7964 101.896 41.5719C101.12 41.5564 100.334 41.1725 99.5203 40.3546ZM99.3874 44.0158C98.4573 44.2635 97.525 44.1907 96.726 43.8691C97.261 43.1924 98.033 42.6656 98.9626 42.4185C100.077 42.1218 100.95 42.1874 101.627 42.5647C101.226 43.2288 100.501 43.7196 99.3874 44.0158ZM94.9025 42.5779C93.9415 42.6237 93.045 42.3556 92.3308 41.873C92.9959 41.3242 93.8638 40.9718 94.8237 40.926C95.9758 40.8714 96.8139 41.1196 97.398 41.6309C96.8663 42.1957 96.0535 42.5228 94.9025 42.5779ZM90.8209 40.2255C89.8714 40.0677 89.0521 39.6171 88.4559 38.9944C89.2218 38.5984 90.1431 38.4373 91.0914 38.5945C92.2287 38.7837 92.9963 39.2034 93.4586 39.8262C92.8205 40.2663 91.9587 40.4147 90.8209 40.2255ZM87.3256 37.0661C86.4307 36.712 85.7243 36.0987 85.2736 35.364C86.104 35.1379 87.039 35.1748 87.9333 35.5289C89.0051 35.9531 89.6674 36.5256 89.9887 37.2322C89.2723 37.5272 88.3984 37.4908 87.3256 37.0661ZM84.5735 33.2405C83.774 32.7055 83.2119 31.957 82.9249 31.1435C83.7856 31.0982 84.6914 31.331 85.491 31.866C86.4497 32.5069 86.9771 33.2058 87.1418 33.9642C86.3792 34.1015 85.5317 33.8814 84.5735 33.2405ZM82.6885 28.9207C82.0195 28.229 81.6277 27.3785 81.5181 26.523C82.3689 26.6598 83.2064 27.0785 83.8759 27.7701C84.6777 28.5991 85.0463 29.3934 85.0474 30.1694C84.2721 30.1429 83.4908 29.7491 82.6885 28.9207ZM81.1164 21.7095C81.9192 22.0228 82.6482 22.6086 83.1568 23.4255C83.7663 24.405 83.9597 25.2594 83.7982 26.0183C83.0466 25.8292 82.3645 25.2793 81.755 24.3002C81.2464 23.4828 81.0426 22.5694 81.1164 21.7095ZM81.7352 16.9192C82.4532 17.3947 83.0439 18.1211 83.3701 19.0273C83.7597 20.1133 83.7679 20.9887 83.45 21.6969C82.7546 21.3532 82.2047 20.6721 81.8146 19.5866C81.4894 18.6804 81.4834 17.7444 81.7352 16.9192ZM83.3486 12.3672C83.9509 12.9833 84.3752 13.8178 84.5019 14.772C84.6556 15.9159 84.4793 16.7736 84.0197 17.3991C83.4131 16.9165 83.018 16.1349 82.8659 14.991C82.7375 14.0368 82.9287 13.1201 83.3486 12.3672ZM84.8595 10.7202C84.935 9.76049 85.3141 8.90447 85.8828 8.25693C86.3428 8.98665 86.5825 9.89177 86.5054 10.8515C86.4139 12.002 86.0618 12.8035 85.4816 13.3175C84.9884 12.718 84.768 11.8708 84.8595 10.7202ZM88.264 12.0644C89.1335 11.6507 90.0631 11.552 90.9078 11.7219C90.5067 12.4847 89.8427 13.1443 88.9737 13.5575C87.9323 14.0528 87.0628 14.1482 86.3277 13.9011C86.5999 13.1747 87.2231 12.5597 88.264 12.0644ZM87.7075 6.96573C87.9841 6.04351 88.5346 5.28677 89.2267 4.77382C89.5231 5.58351 89.5661 6.51896 89.2895 7.44117C88.9572 8.54595 88.4454 9.25581 87.7681 9.63584C87.4127 8.94584 87.3753 8.07106 87.7075 6.96573ZM90.7525 8.99713C91.6887 8.77651 92.6194 8.87579 93.409 9.22051C92.8558 9.88128 92.0684 10.386 91.1322 10.6066C90.0092 10.8713 89.1391 10.7809 88.4724 10.3843C88.8923 9.73181 89.6306 9.26188 90.7525 8.99713ZM91.2811 3.89573C91.7456 3.05239 92.4426 2.42912 93.2278 2.07337C93.3463 2.92719 93.192 3.85105 92.7275 4.69384C92.1704 5.70485 91.5208 6.29006 90.7791 6.51896C90.578 5.76994 90.724 4.90619 91.2811 3.89573ZM95.0617 3.56645C95.885 3.06894 96.8019 2.8781 97.6582 2.96304C97.3342 3.76225 96.7385 4.48425 95.9153 4.98176C94.9284 5.57855 94.0721 5.75946 93.3161 5.58682C93.5167 4.83669 94.0749 4.16269 95.0617 3.56645ZM96.3808 7.30218C95.7014 7.83168 94.8253 8.15876 93.8632 8.17696C92.7099 8.19902 91.8784 7.9271 91.3108 7.39925C91.8575 6.8499 92.6785 6.54599 93.8307 6.52392C94.7928 6.50572 95.6805 6.7986 96.3808 7.30218ZM87.4835 16.8972C86.5704 17.601 85.74 17.8773 84.9697 17.7907C85.0838 17.0235 85.5632 16.2904 86.4762 15.5872C87.2388 14.9998 88.1271 14.7069 88.9889 14.6948C88.7569 15.5254 88.2461 16.3103 87.4835 16.8972ZM85.9464 27.2505C86.2109 26.3245 86.7509 25.5606 87.4369 25.0377C87.7433 25.8441 87.8 26.779 87.535 27.7045C87.2181 28.8137 86.7151 29.5301 86.0439 29.9195C85.6797 29.2345 85.6301 28.3597 85.9464 27.2505ZM84.4611 21.8794C84.411 21.105 84.7262 20.2876 85.4706 19.4073C86.0921 18.6726 86.8994 18.1988 87.7386 18.0058C87.6873 18.8668 87.3529 19.741 86.7308 20.4757C85.9869 21.3565 85.2325 21.8017 84.4611 21.8794ZM85.2915 23.3543C85.7444 22.5049 86.4332 21.8717 87.2135 21.5055C87.3435 22.3582 87.2019 23.2837 86.7478 24.1331C86.2051 25.1507 85.5626 25.7448 84.8248 25.9841C84.6126 25.2373 84.7493 24.3719 85.2915 23.3543ZM88.3991 28.4441C88.8674 29.1672 89.1187 30.069 89.0553 31.0304C88.9793 32.1815 88.6376 32.9879 88.0635 33.5097C87.5637 32.9167 87.3312 32.0723 87.4072 30.9212C87.4706 29.9604 87.8381 29.0994 88.3991 28.4441ZM90.055 31.5709C90.6661 32.1793 91.1014 33.0077 91.2419 33.9603C91.4088 35.102 91.2457 35.9619 90.7939 36.5929C90.1801 36.1191 89.7762 35.3425 89.6076 34.2013C89.467 33.2488 89.645 32.3299 90.055 31.5709ZM92.3325 34.2785C93.0587 34.7441 93.6577 35.4628 93.9949 36.364C94.3994 37.4445 94.4198 38.3204 94.1123 39.0325C93.4119 38.6982 92.8538 38.0248 92.4482 36.9442C92.111 36.0424 92.0922 35.1064 92.3325 34.2785ZM95.1285 36.4445C95.9358 36.7473 96.673 37.3232 97.1937 38.1334C97.8153 39.1042 98.0203 39.9558 97.8682 40.7169C97.1138 40.5382 96.4256 39.9972 95.803 39.0264C95.2833 38.2162 95.0673 37.3055 95.1285 36.4445ZM126.813 25.6256C126.452 25.6058 126.087 25.63 125.725 25.6946C125.969 25.4315 126.207 25.1221 126.436 24.7542C127.244 23.4563 127.408 21.9489 127.008 20.6489C126.652 20.7057 126.299 20.8066 125.959 20.9456C126.141 20.6373 126.309 20.2849 126.456 19.8767C126.973 18.4377 126.814 16.9303 126.151 15.7433C125.814 15.874 125.491 16.0467 125.187 16.2546C125.301 15.9148 125.39 15.5348 125.448 15.1051C125.651 13.5889 125.18 12.1488 124.281 11.1284C123.979 11.3269 123.699 11.5641 123.446 11.8316C123.485 11.4747 123.494 11.0842 123.46 10.6524C123.338 9.1284 122.574 7.81899 121.482 7.01095C121.228 7.26909 121.004 7.55976 120.813 7.8747C120.777 7.51784 120.703 7.1345 120.578 6.71918C120.138 5.25478 119.117 4.13566 117.879 3.57637C117.685 3.88249 117.527 4.21343 117.406 4.56147C117.296 4.22005 117.143 3.86098 116.934 3.48151C116.196 2.14286 114.962 1.26423 113.633 0.978516C113.381 1.66742 113.289 2.42471 113.374 3.18642C113.211 3.06563 113.036 2.94759 112.845 2.83177C111.537 2.04138 110.029 1.89962 108.736 2.31716C108.97 3.65745 109.798 4.9266 111.106 5.71699C111.296 5.83227 111.483 5.9321 111.665 6.02035C110.952 6.30054 110.326 6.73352 109.834 7.27791C110.564 8.15269 111.634 8.7732 112.859 8.969C113.391 9.96181 114.297 10.7803 115.44 11.2243C115.752 12.3076 116.463 13.2977 117.488 13.9733C117.565 15.098 118.053 16.216 118.913 17.0924C118.751 18.2077 118.992 19.404 119.649 20.4415C119.256 21.4983 119.24 22.7184 119.662 23.8711C119.056 24.8209 118.784 26.0106 118.955 27.2268C118.162 28.0271 117.646 29.133 117.557 30.3575C116.614 30.973 115.877 31.9454 115.531 33.123C114.48 33.5262 113.554 34.321 112.969 35.3999C111.856 35.5725 110.785 36.1544 109.985 37.086C108.642 37.0066 107.231 37.5102 106.164 38.5829C105.474 39.2774 105.072 39.9492 104.872 40.5835C104.537 41.7164 102.927 41.7169 102.591 40.5835C102.391 39.9497 101.99 39.2774 101.3 38.5829C100.232 37.5102 98.8227 37.0066 97.4782 37.086C96.6792 36.1544 95.6079 35.5725 94.4943 35.3999C93.9101 34.321 92.9838 33.5262 91.933 33.123C91.588 31.9454 90.8502 30.973 89.9073 30.3575C89.8181 29.133 89.3012 28.0271 88.5093 27.2268C88.679 26.0106 88.4074 24.8209 87.8023 23.8711C88.2233 22.7184 88.2085 21.4983 87.8156 20.4415C88.4707 19.404 88.7127 18.2077 88.5518 17.0924C89.4103 16.216 89.898 15.098 89.9757 13.9733C90.9995 13.2977 91.712 12.3076 92.0245 11.2243C93.1673 10.7803 94.0716 9.96181 94.6045 8.969C95.8306 8.7732 96.899 8.15269 97.6303 7.27791C97.1382 6.73352 96.5111 6.30054 95.798 6.02035C95.9804 5.9321 96.1667 5.83227 96.3585 5.71699C97.6661 4.9266 98.4943 3.65745 98.7285 2.31716C97.4341 1.89962 95.927 2.04138 94.6193 2.83177C94.427 2.94759 94.2529 3.06563 94.0903 3.18642C94.1736 2.42471 94.0832 1.66742 93.8308 0.978516C92.5022 1.26423 91.2679 2.14286 90.5306 3.48151C90.3206 3.86098 90.168 4.22005 90.0567 4.56147C89.9371 4.21343 89.7784 3.88249 89.5855 3.57637C88.3479 4.13566 87.3246 5.25478 86.8854 6.71918C86.7608 7.1345 86.6865 7.51784 86.6512 7.8747C86.4594 7.55976 86.2362 7.26909 85.9833 7.01095C84.8889 7.81899 84.1257 9.1284 84.004 10.6524C83.9698 11.0842 83.9775 11.4747 84.0172 11.8316C83.7642 11.5641 83.4854 11.3269 83.1829 11.1284C82.2841 12.1488 81.8124 13.5889 82.0163 15.1051C82.0725 15.5348 82.1623 15.9148 82.2759 16.2546C81.9722 16.0467 81.6499 15.874 81.3121 15.7433C80.6486 16.9303 80.491 18.4377 81.0079 19.8767C81.1545 20.2849 81.3231 20.6373 81.5049 20.9456C81.1655 20.8066 80.8123 20.7057 80.4557 20.6489C80.0562 21.9489 80.2199 23.4563 81.0283 24.7542C81.2575 25.1221 81.4945 25.4315 81.7391 25.6946C81.376 25.63 81.0107 25.6058 80.6497 25.6256C80.5329 26.9808 81.0101 28.4199 82.0731 29.518C82.3745 29.8291 82.6726 30.0812 82.9658 30.2869C82.5982 30.3007 82.2356 30.3542 81.8868 30.4491C82.0593 31.7987 82.8269 33.1048 84.0976 33.9542C84.4575 34.1953 84.8019 34.3789 85.133 34.5179C84.7754 34.6084 84.4321 34.7374 84.1114 34.904C84.5638 36.187 85.5899 37.3017 87.0099 37.8643C87.4127 38.0242 87.788 38.1307 88.1412 38.1974C87.8106 38.3612 87.5031 38.5592 87.2243 38.7898C87.9357 39.9486 89.1733 40.8217 90.6805 41.0727C91.1086 41.1433 91.4977 41.1687 91.8553 41.1598C91.5682 41.3893 91.3081 41.648 91.0849 41.932C92.0239 42.9149 93.4175 43.5078 94.9439 43.435C95.377 43.4146 95.7622 43.3573 96.111 43.2723C95.8774 43.5575 95.6785 43.8653 95.5187 44.1901C96.6439 44.9529 98.1323 45.2386 99.6074 44.8459C100.319 44.6567 100.884 44.3953 101.328 44.0875C102.764 43.1096 104.666 43.0864 106.135 44.0875C106.58 44.3953 107.144 44.6567 107.856 44.8459C109.332 45.2386 110.819 44.9529 111.944 44.1901C111.786 43.8653 111.587 43.5575 111.353 43.2723C111.702 43.3573 112.088 43.4146 112.52 43.435C114.047 43.5078 115.441 42.9149 116.379 41.932C116.156 41.648 115.896 41.3893 115.608 41.1598C115.966 41.1687 116.355 41.1433 116.783 41.0727C118.291 40.8217 119.528 39.9486 120.24 38.7898C119.961 38.5592 119.652 38.3612 119.324 38.1974C119.675 38.1307 120.05 38.0242 120.453 37.8643C121.874 37.3017 122.9 36.187 123.352 34.904C123.031 34.7374 122.688 34.6084 122.332 34.5179C122.661 34.3789 123.006 34.1953 123.366 33.9542C124.636 33.1048 125.406 31.7987 125.576 30.4491C125.228 30.3542 124.865 30.3007 124.497 30.2869C124.792 30.0812 125.09 29.8291 125.39 29.518C126.453 28.4199 126.93 26.9808 126.813 25.6256ZM68.3707 9.62999C68.3707 10.2174 67.8935 10.6945 67.3072 10.6945C66.7215 10.6945 66.2438 10.2174 66.2438 9.62999C66.2438 9.04313 66.7215 8.56548 67.3072 8.56548C67.8935 8.56548 68.3707 9.04313 68.3707 9.62999ZM39.3351 12.2956C39.9202 12.2956 40.3985 11.818 40.3985 11.2311C40.3985 10.6443 39.9202 10.1672 39.3351 10.1672C38.7488 10.1672 38.2705 10.6443 38.2705 11.2311C38.2705 11.818 38.7488 12.2956 39.3351 12.2956ZM46.0706 35.4355C46.6767 35.4355 47.1891 35.2254 47.5936 34.8106C47.9975 34.3958 48.203 33.8707 48.203 33.2502C48.203 32.6369 47.9975 32.1151 47.5936 31.7003C47.1891 31.285 46.6767 31.0749 46.0706 31.0749C45.4589 31.0749 44.9437 31.285 44.5437 31.6998C44.1414 32.1151 43.9376 32.6369 43.9376 33.2502C43.9376 33.8707 44.1414 34.3958 44.5437 34.8106C44.9437 35.2254 45.4589 35.4355 46.0706 35.4355ZM43.4064 30.6496C44.1321 29.9342 45.0341 29.5707 46.0904 29.5707C47.1467 29.5707 48.0416 29.9254 48.7502 30.6242C49.4582 31.3225 49.8164 32.1995 49.8164 33.2304C49.8164 34.2607 49.4489 35.1443 48.7248 35.8563C47.9991 36.569 47.0971 36.9297 46.0408 36.9297C44.9851 36.9297 44.0902 36.5772 43.381 35.8817C42.673 35.1862 42.3148 34.3114 42.3148 33.2806C42.3148 32.2497 42.6823 31.3644 43.4064 30.6496ZM31.448 36.8283H29.784V29.6723H31.448V36.8283ZM4.23516 34.7998C3.80701 35.2085 3.25544 35.4153 2.59476 35.4153H1.62441V31.0955H2.59476C3.25544 31.0955 3.80701 31.3012 4.23516 31.7066C4.66165 32.1115 4.8793 32.631 4.8793 33.2504C4.8793 33.8698 4.66165 34.3911 4.23516 34.7998ZM2.56501 29.6724H0V36.8284H2.51431C3.64997 36.8284 4.60765 36.4815 5.35869 35.797C6.11084 35.1114 6.49325 34.2482 6.49325 33.2306C6.49325 32.2129 6.1202 31.3558 5.38404 30.6835C4.64953 30.0128 3.70011 29.6724 2.56501 29.6724ZM12.1974 33.8572C12.1974 34.3304 12.0635 34.716 11.7979 35.0034C11.535 35.2907 11.1818 35.4358 10.752 35.4358C10.3206 35.4358 9.96626 35.2907 9.69957 35.0034C9.43067 34.716 9.29512 34.3304 9.29512 33.8572V29.6725H7.65197V33.908C7.65197 34.818 7.93299 35.5571 8.48677 36.1043C9.04055 36.652 9.78553 36.93 10.7008 36.93C11.61 36.93 12.3599 36.6437 12.9302 36.0789C13.5005 35.5147 13.7909 34.7673 13.7909 33.8572V29.6725H12.1974V33.8572ZM18.5042 33.7446H17.0186V35.5676H18.5042C18.8293 35.5676 19.091 35.4776 19.2806 35.3C19.4701 35.123 19.5671 34.9029 19.5671 34.6459C19.5671 34.3856 19.4729 34.1749 19.2811 34.0028C19.0921 33.8312 18.8304 33.7446 18.5042 33.7446ZM18.2716 32.5544C18.5703 32.5544 18.8105 32.476 18.9836 32.3216C19.1566 32.1683 19.2436 31.9769 19.2436 31.754C19.2436 31.5246 19.1566 31.3299 18.9836 31.1766C18.8105 31.0221 18.5703 30.9438 18.2716 30.9438H17.0186V32.5544H18.2716ZM20.6041 32.4578C20.4438 32.7121 20.2212 32.9217 19.944 33.0811C20.3143 33.2201 20.6118 33.4391 20.8295 33.7331C21.0626 34.0485 21.1805 34.417 21.1805 34.8279C21.1805 35.3971 20.9535 35.8781 20.5044 36.2581C20.0592 36.6365 19.4811 36.8284 18.788 36.8284H15.3953V29.6724H18.6061C19.2789 29.6724 19.8294 29.8456 20.2421 30.1871C20.657 30.5301 20.8664 30.9791 20.8664 31.5218C20.8664 31.8644 20.7782 32.1793 20.6041 32.4578ZM26.1162 34.0403H24.2598L25.1921 31.5914L26.1162 34.0403ZM26.0275 29.6725H24.4389L21.5377 36.8285H23.2393L23.8057 35.342H26.5801L27.1449 36.8285H28.9275L26.0363 29.6968L26.0275 29.6725ZM37.3159 31.0547H38.64C39.0054 31.0547 39.304 31.1584 39.5288 31.363C39.7515 31.5671 39.8644 31.8313 39.8644 32.1484C39.8644 32.4656 39.7515 32.7298 39.5288 32.9333C39.304 33.1374 39.0054 33.2416 38.64 33.2416H37.3159V31.0547ZM38.7927 29.6724H35.6926V36.8284H37.3159V34.5836H38.742C39.5426 34.5836 40.2055 34.3486 40.7119 33.8858C41.2205 33.422 41.4784 32.8235 41.4784 32.1076C41.4784 31.385 41.2293 30.7921 40.7378 30.3448C40.2468 29.8986 39.5933 29.6724 38.7927 29.6724ZM65.515 34.6557C65.0951 35.1731 64.5369 35.4356 63.8542 35.4356C62.6188 35.4356 61.7212 34.5167 61.7212 33.2503C61.7212 31.99 62.6188 31.075 63.8542 31.075C64.511 31.075 65.0555 31.3204 65.4726 31.8047L65.499 31.8345L66.6837 30.7799L66.6562 30.7501C65.931 29.9674 64.9948 29.5709 63.8746 29.5709C61.7576 29.5709 60.0985 31.2002 60.0985 33.2807C60.0985 35.3606 61.6992 36.9298 63.8245 36.9298C64.9778 36.9298 65.9432 36.5034 66.6936 35.6629L66.7206 35.6325L65.5404 34.6248L65.515 34.6557ZM51.1198 29.6725H52.7431V35.3751H56.1981V36.8285H51.1198V29.6725ZM57.1364 36.8283H58.801V29.6723H57.1364V36.8283ZM69.3392 33.8154V35.4155H73.0961V36.8286H67.7153V29.6726H72.9958V31.0956H69.3392V32.4834H72.4905V33.8154H69.3392ZM65.83 13.1488C66.4158 13.1488 66.8935 12.6717 66.8935 12.0843C66.8935 11.4974 66.4158 11.0198 65.83 11.0198C65.2437 11.0198 64.766 11.4974 64.766 12.0843C64.766 12.6717 65.2437 13.1488 65.83 13.1488ZM68.784 13.149C68.1982 13.149 67.7211 12.6713 67.7211 12.0844C67.7211 11.4976 68.1982 11.0199 68.784 11.0199C69.3708 11.0199 69.848 11.4976 69.848 12.0844C69.848 12.6713 69.3708 13.149 68.784 13.149ZM71.5604 13.3995L69.7729 14.4867C70.1927 15.1794 71.4331 17.5842 70.8562 20.9912H68.3529V14.4878H66.2601V20.9912H64.6726V14.4878H62.5804V20.9912H59.6219V13.6351H57.5291V21.8947C57.5291 23.5863 56.1549 24.9619 54.4655 24.9619H53.9326V27.0562H54.4655C56.8993 27.0562 58.9436 25.3591 59.482 23.0855H72.528L72.7225 22.2874C73.8499 17.6769 72.1191 14.319 71.5604 13.3995ZM25.2989 15.2594L26.2384 13.3885C27.4193 13.9831 31.1701 16.3785 29.8763 22.2631L29.695 23.0855H23.3108V20.9912H27.9725C28.1775 19.3195 28.0166 16.6273 25.2989 15.2594ZM44.8149 19.6876L48.0174 16.9529C48.7487 16.3291 49.7146 16.0335 50.6684 16.1416C51.6222 16.2502 52.4967 16.7549 53.0687 17.5271C53.7249 18.4107 53.9294 19.5684 53.6164 20.623L53.5067 20.9909H44.8149V19.6876ZM55.0688 23.0852L55.6221 21.2187C56.1219 19.5359 55.7957 17.6887 54.7498 16.2789C53.8334 15.0429 52.4315 14.2343 50.9051 14.0605C49.3765 13.8879 47.8302 14.3606 46.6604 15.3595L44.8149 16.9347V11.231H42.722V20.9909H40.3718V13.6353H38.2095C35.3231 13.6353 32.9773 15.9849 32.9773 18.8724V23.0852H35.0685V18.8724C35.0685 17.1394 36.477 15.7296 38.2095 15.7296H38.2795V23.0852H55.0688ZM18.7911 25.4916C18.7911 24.9041 19.2694 24.4259 19.8568 24.4259C20.4431 24.4259 20.9213 24.9041 20.9213 25.4916C20.9213 26.0795 20.4431 26.5577 19.8568 26.5577C19.2694 26.5577 18.7911 26.0795 18.7911 25.4916ZM8.68833 24.4259C8.10149 24.4259 7.62266 24.9041 7.62266 25.4916C7.62266 26.0795 8.10149 26.5577 8.68833 26.5577C9.27517 26.5577 9.75346 26.0795 9.75346 25.4916C9.75346 24.9041 9.27517 24.4259 8.68833 24.4259ZM4.94489 25.4916C4.94489 24.9041 5.42373 24.4259 6.01057 24.4259C6.59685 24.4259 7.07569 24.9041 7.07569 25.4916C7.07569 26.0795 6.59685 26.5577 6.01057 26.5577C5.42373 26.5577 4.94489 26.0795 4.94489 25.4916ZM36.7262 12.2972C37.3125 12.2972 37.7913 11.819 37.7913 11.2311C37.7913 10.6437 37.3125 10.1655 36.7262 10.1655C36.1393 10.1655 35.6605 10.6437 35.6605 11.2311C35.6605 11.819 36.1393 12.2972 36.7262 12.2972ZM18.6893 20.9911C19.394 20.9911 19.9671 20.4175 19.9671 19.7121V13.6355H22.0595V19.7121C22.0595 21.5725 20.5479 23.0854 18.6893 23.0854H15.6359V15.7298H15.524C13.8417 15.7298 12.5721 17.0806 12.5721 18.8731V23.0854H0.00099184V20.7082C0.00099184 18.1749 0.642963 15.577 1.80843 13.3923L3.65389 14.379C2.64658 16.2653 2.09222 18.513 2.09222 20.7082V20.9911H10.4792V18.8731C10.4792 15.9361 12.696 13.6355 15.524 13.6355H17.7282V20.9911H18.6893ZM91.6701 23.4894C97.3991 20.3571 104.165 20.0234 110.04 22.3218C105.759 17.5579 104.79 10.9105 107.09 5.31931C98.9601 7.66731 92.7159 14.7918 91.6701 23.4894ZM111.421 24.7961L111.916 24.1287C108.857 22.5021 105.539 21.714 102.258 21.6913V24.7961H111.421ZM100.912 21.725C97.4464 21.9235 94.0692 22.9754 91.1317 24.7961H100.912V21.725ZM90.692 25.3725V24.7856C91.2309 14.6887 98.6999 6.03138 108.647 4.04851C105.168 10.2624 106.448 18.5634 112.425 23.421H118.115V25.0664H117.067C116.153 26.7905 115.589 27.8236 114.428 29.5522H116.342C116.342 29.5522 115.925 30.4121 114.636 30.4121H92.8284C91.539 30.4121 91.1229 29.5522 91.1229 29.5522H93.2158C91.75 27.4287 90.8678 25.7453 90.692 25.3725ZM102.764 37.6518H104.7C105.989 37.6518 106.404 36.7914 106.404 36.7914H101.059C101.059 36.7914 101.475 37.6518 102.764 37.6518ZM97.1679 34.9816H110.295C110.295 34.9816 109.879 35.842 108.591 35.842H98.8727C97.5839 35.842 97.1679 34.9816 97.1679 34.9816ZM113.26 33.1721H94.2026C94.2026 33.1721 94.6191 34.0325 95.908 34.0325H111.555C112.845 34.0325 113.26 33.1721 113.26 33.1721ZM92.3953 31.3619H115.068C115.068 31.3619 114.652 32.2224 113.363 32.2224H94.1003C92.8113 32.2224 92.3953 31.3619 92.3953 31.3619Z" fill="#097E5C"/>
</svg>
