<?xml version="1.0" encoding="UTF-8"?>
<svg xmlns="http://www.w3.org/2000/svg" version="1.1" viewBox="0 0 60 60">
  <defs>
    <style>
      .cls-1 {
        fill: none;
        stroke: #999;
        stroke-linecap: round;
        stroke-linejoin: round;
        stroke-width: 3px;
      }
    </style>
  </defs>
  <!-- Generator: Adobe Illustrator 28.7.1, SVG Export Plug-In . SVG Version: 1.2.0 Build 142)  -->
  <g>
    <g id="Layer_1">
      <path class="cls-1" d="M18.8,27.5h-7.2c-1.4,0-2.1,0-2.6.3-.5.2-.9.6-1.1,1.1-.3.5-.3,1.2-.3,2.6v21M41.2,27.5h7.2c1.4,0,2.1,0,2.6.3.5.2.9.6,1.1,1.1.3.5.3,1.2.3,2.6v21M41.2,52.5V15.5c0-2.8,0-4.2-.5-5.3-.5-.9-1.2-1.7-2.2-2.2-1.1-.5-2.5-.5-5.3-.5h-6.5c-2.8,0-4.2,0-5.3.5-.9.5-1.7,1.2-2.2,2.2-.5,1.1-.5,2.5-.5,5.3v37M55,52.5H5M27.5,17.5h5M27.5,27.5h5M27.5,37.5h5"/>
    </g>
  </g>
</svg>