<?xml version="1.0" encoding="UTF-8"?>
<svg xmlns="http://www.w3.org/2000/svg" version="1.1" viewBox="0 0 60 60">
  <defs>
    <style>
      .cls-1 {
        fill: none;
        stroke: #999;
        stroke-linecap: round;
        stroke-linejoin: round;
        stroke-width: 3px;
      }
    </style>
  </defs>
  <!-- Generator: Adobe Illustrator 28.7.1, SVG Export Plug-In . SVG Version: 1.2.0 Build 142)  -->
  <g>
    <g id="Layer_1">
      <path class="cls-1" d="M42.5,36.2v-7.5c0-.4,0-.7,0-.9,0-.2-.2-.3-.3-.5-.1-.1-.3-.2-.7-.5l-11.4-5.7M10,23.8v17c0,.9,0,1.4.1,1.8.1.4.3.7.6,1,.3.3.7.5,1.6.9l16,7.3c.6.3.9.4,1.2.5.3,0,.6,0,.9,0,.3,0,.6-.2,1.2-.5l16-7.3c.8-.4,1.3-.6,1.6-.9.3-.3.5-.6.6-1,.1-.4.1-.9.1-1.8v-17M5,21.2l24.1-12.1c.3-.2.5-.2.7-.3.2,0,.3,0,.5,0,.2,0,.3.1.7.3l24.1,12.1-24.1,12.1c-.3.2-.5.2-.7.3-.2,0-.3,0-.5,0-.2,0-.3-.1-.7-.3L5,21.2Z"/>
    </g>
  </g>
</svg>