<?xml version="1.0" encoding="UTF-8"?><svg id="Layer_2" xmlns="http://www.w3.org/2000/svg" viewBox="0 0 142.3 57.16"><defs><style>.cls-1{fill:#fff;stroke-width:0px;}</style></defs><g id="Layer_1-2"><polygon class="cls-1" points="3.63 30.92 4.8 31.75 5.57 30.59 4.34 29.75 3.8 30.57 2.6 29.75 1.84 30.88 3.07 31.75 3.63 30.92"/><polygon class="cls-1" points="26.62 29.11 27.91 30.01 28.71 28.8 27.43 27.92 26.62 29.11"/><path class="cls-1" d="M26.03,26.92c.6,0,1.05-.04,1.37-.13.32-.08.58-.22.78-.42.21-.22.37-.46.48-.74.11-.27.16-.57.16-.88,0-.29-.06-.67-.19-1.14-.12-.47-.29-.92-.49-1.34h-.12l-1.22.97c.22.44.39.82.51,1.14.12.31.19.58.19.8,0,.06,0,.11-.01.13-.08.03-.23.06-.46.07-.22.02-.46.03-.71.03H9.34c-.43,0-.85-.04-1.25-.13-.4-.09-.9-.22-1.49-.41l-.64-.19-.45,1.43c.43.11.77.21,1.01.3.24.09.41.17.51.25.1.08.15.17.15.28-.13.14-.36.26-.68.37-.33.11-.72.19-1.17.25-.45.06-.91.09-1.38.09-.61,0-1.1-.07-1.46-.21-.36-.14-.61-.33-.76-.59-.15-.26-.22-.57-.22-.94,0-.14.01-.29.04-.46.02-.17.06-.36.1-.58l-.13-.07-1.3.42C.07,25.77,0,26.23,0,26.61c0,.49.13.93.4,1.31.27.38.68.68,1.23.91.55.22,1.23.33,2.03.33.89,0,1.69-.09,2.4-.27.71-.18,1.27-.43,1.69-.77.42-.34.67-.74.73-1.21h.52s0,0,.01,0h0s.97,0,.97,0h16.04Z"/><path class="cls-1" d="M32.97,26.79c.45-.16.8-.39,1.05-.71.24-.31.37-.69.37-1.14,0-.52-.19-1.1-.56-1.73-.38-.63-.88-1.28-1.51-1.95h-.12l-.93,1.34c.44.42.85.88,1.23,1.38.38.5.61.92.7,1.26-.14.08-.38.14-.72.18-.34.04-.67.06-.99.06-.23,0-.49,0-.78-.02-.29-.02-.49-.04-.62-.07l-.08.05-.22,1.46c.16.03.41.06.73.09.33.03.62.04.89.04.6,0,1.12-.08,1.57-.24"/><polygon class="cls-1" points="39.95 19.48 41.13 20.31 41.91 19.15 40.66 18.31 40.12 19.12 38.94 18.31 38.17 19.44 39.42 20.31 39.95 19.48"/><path class="cls-1" d="M61.39,26.59c.25-.32.37-.74.37-1.26,0-.45-.11-.89-.31-1.31-.21-.42-.48-.76-.82-1.01-.34-.26-.69-.39-1.06-.39-.32,0-.62.1-.89.3-.27.2-.5.43-.68.69-.18.26-.38.57-.58.93-.14.26-.25.44-.34.56-.09.12-.18.2-.28.24-.1.04-.23.07-.39.07h-12.83s0,0-.01,0c-.31,0-.54-.03-.71-.08-.16-.05-.28-.14-.34-.25-.07-.12-.1-.28-.1-.5v-3.63l-.11-.04-1.4.54v.56c-.61.2-1.14.45-1.58.75-.44.3-.77.62-.99.97-.22.34-.33.68-.33,1.02,0,.31.09.58.26.82.17.24.42.42.75.55.33.13.71.19,1.14.19.37,0,.74-.06,1.12-.19.19.27.45.48.78.6.33.13.71.19,1.17.19.01,0,.02,0,.03,0h0s.97,0,.97,0h6.06,0,5.8c.44,0,.81-.05,1.11-.14.3-.09.56-.27.8-.54.41.29.82.5,1.23.64.41.13.79.2,1.14.2.45,0,.8-.16,1.05-.48M40.89,24.57v.23c-.17.03-.37.05-.61.05s-.47-.04-.68-.13c-.22-.09-.36-.21-.42-.36.07-.19.27-.36.58-.53.31-.17.69-.3,1.12-.41v1.15ZM59.99,25.57c-.18,0-.38-.04-.61-.13-.23-.09-.46-.21-.7-.36.19-.35.35-.6.47-.77.12-.17.25-.25.39-.25s.27.08.41.24c.14.16.25.35.34.57.09.23.15.42.16.59-.14.07-.29.11-.47.11"/><path class="cls-1" d="M71.19,25.93c.26.3.55.54.87.72.32.18.66.27,1.03.27.46,0,.94-.05,1.44-.16.5-.1,1.17-.3,2-.58.62-.21,1.21-.38,1.76-.52.55-.14,1.04-.23,1.47-.28l.39-1.45c-.29-.02-.61-.09-.96-.21-.35-.13-.85-.35-1.49-.67-.63-.32-1.09-.53-1.4-.64-.3-.11-.59-.17-.85-.17-.19,0-.39.02-.59.07-.2.05-.37.11-.51.19l-.53,1.33.06.06c.25-.07.48-.13.7-.17.21-.04.45-.06.7-.06.27,0,.55.05.85.14.3.1.68.27,1.14.52.28.14.47.23.58.28-.06.02-.22.05-.47.11-.25.06-.51.13-.78.21-.73.19-1.32.32-1.75.38-.43.06-.9.09-1.41.09h0s0,0-.01,0c-.22,0-.44-.06-.66-.19-.22-.13-.42-.27-.59-.44-.17-.17-.42-.42-.74-.76-.29-.31-.6-.61-.92-.91-.33-.3-.72-.63-1.18-1l2.57-1.28.5-1.83-.11-.07-4.18,2.16-.35,1.69.06.09c.5.34,1,.72,1.5,1.15.5.43.84.77,1.01,1.03-.1.11-.28.2-.54.26-.26.06-.65.09-1.17.09h-1.26s-.01,0-.02,0h-.84c-.03-.51-.14-.98-.31-1.41-.18-.42-.41-.76-.71-1-.3-.25-.64-.37-1.01-.37s-.7.13-1,.38c-.31.25-.55.58-.72.97-.18.39-.27.78-.27,1.17,0,.57.2,1,.6,1.3.4.31,1,.46,1.8.47-.27.29-.65.5-1.14.64-.49.14-1.11.21-1.86.23l-.09.13.73,1.15c.66,0,1.24-.09,1.75-.29.5-.19.92-.44,1.26-.77.33-.32.59-.69.76-1.1h.75s.02,0,.03,0h0s1.09,0,1.09,0c.59,0,1.08-.03,1.48-.09.4-.06.73-.16,1-.31.27-.15.47-.34.6-.59M64.84,25.4c-.43,0-.73-.04-.92-.12-.18-.08-.28-.21-.28-.38,0-.14.03-.27.1-.4.07-.13.16-.24.28-.32.12-.09.24-.13.37-.13.14,0,.28.06.41.18.13.12.24.28.33.49.09.2.14.43.16.67h-.45Z"/><path class="cls-1" d="M2.06,36.91h1v.98c-.21.08-.44.12-.69.12-.45,0-.78-.13-.99-.39-.21-.26-.32-.66-.32-1.2,0-.51.11-.89.34-1.17.22-.27.56-.41,1.01-.41.38,0,.76.11,1.12.33l.42-.73c-.23-.14-.48-.25-.74-.33-.27-.07-.55-.11-.85-.11-.45,0-.85.08-1.2.25-.35.17-.63.44-.84.81-.21.37-.31.84-.31,1.41,0,.74.18,1.33.55,1.77.37.44.94.65,1.73.65.29,0,.58-.04.86-.1.28-.07.58-.19.91-.35v-2.34h-1.88l-.11.83Z"/><path class="cls-1" d="M8.35,34.3c-.35-.21-.78-.31-1.28-.31-.44,0-.84.09-1.2.26-.36.18-.65.45-.86.81-.22.36-.33.82-.33,1.36,0,.49.09.91.27,1.28.18.37.44.66.79.86.35.21.78.31,1.28.31.44,0,.84-.09,1.2-.26.36-.18.65-.45.86-.81.21-.36.32-.82.32-1.36,0-.49-.09-.91-.26-1.28-.18-.37-.44-.66-.79-.86M8.2,37.3c-.1.24-.25.42-.45.55-.2.13-.44.19-.73.19-.42,0-.74-.14-.95-.43-.22-.29-.33-.69-.33-1.2s.11-.88.34-1.16c.23-.28.56-.42.99-.42s.73.14.95.43c.22.29.33.69.33,1.2,0,.32-.05.6-.15.84"/><polygon class="cls-1" points="11.89 37.74 10.67 34.09 9.58 34.09 9.58 34.15 11.3 38.78 12.44 38.78 14.15 34.15 14.15 34.09 13.11 34.09 11.89 37.74"/><polygon class="cls-1" points="15.75 36.8 17.48 36.8 17.6 35.98 15.75 35.98 15.75 34.92 17.89 34.92 17.89 34.09 14.75 34.09 14.75 38.78 17.92 38.78 17.92 37.94 15.75 37.94 15.75 36.8"/><path class="cls-1" d="M21.94,36.4c.17-.24.25-.52.25-.85,0-.28-.07-.53-.2-.75-.14-.22-.34-.39-.62-.52-.28-.13-.62-.19-1.04-.19h-1.57v4.69h1v-1.71h.39l1.18,1.71h1.15v-.06l-1.26-1.79c.32-.12.56-.29.72-.53M20.89,36.13c-.16.11-.39.17-.68.17h-.45v-1.38h.56c.26,0,.46.06.6.17.14.11.21.28.21.5,0,.26-.08.44-.24.55"/><path class="cls-1" d="M26.26,37.25c-.04-.09-.09-.18-.14-.27-.06-.09-.12-.19-.18-.29-.07-.1-.11-.17-.13-.2l-1.6-2.4h-1.1v4.69h1v-3.17c.08.18.17.34.25.48.09.14.19.31.32.5l1.47,2.18h1.11v-4.69h-1v3.16Z"/><path class="cls-1" d="M31.23,36.14c-.2.4-.34.7-.41.93-.04-.13-.1-.27-.17-.44-.07-.17-.15-.33-.23-.49l-1.07-2.05h-1.05v4.69h1v-2.92c.06.17.17.41.32.7l.83,1.63h.79l.81-1.63c.15-.29.26-.52.32-.7v2.92h1v-4.69h-1.04l-1.09,2.05Z"/><polygon class="cls-1" points="35.38 36.8 37.11 36.8 37.22 35.98 35.38 35.98 35.38 34.92 37.51 34.92 37.51 34.09 34.38 34.09 34.38 38.78 37.55 38.78 37.55 37.94 35.38 37.94 35.38 36.8"/><path class="cls-1" d="M41.54,37.25c-.04-.09-.09-.18-.14-.27-.06-.09-.12-.19-.18-.29-.07-.1-.11-.17-.13-.2l-1.6-2.4h-1.1v4.69h1v-3.17c.08.18.17.34.25.48.09.14.19.31.32.5l1.47,2.18h1.11v-4.69h-1v3.16Z"/><polygon class="cls-1" points="43.15 34.96 44.64 34.96 44.64 38.78 45.64 38.78 45.64 34.96 47.13 34.96 47.13 34.09 43.15 34.09 43.15 34.96"/><path class="cls-1" d="M52.78,34.3c-.35-.21-.78-.31-1.28-.31-.44,0-.84.09-1.2.26-.36.18-.65.45-.86.81-.22.36-.33.82-.33,1.36,0,.49.09.91.27,1.28.18.37.44.66.79.86.35.21.78.31,1.28.31.44,0,.84-.09,1.2-.26.36-.18.65-.45.86-.81.21-.36.32-.82.32-1.36,0-.49-.09-.91-.26-1.28-.18-.37-.44-.66-.79-.86M52.63,37.3c-.1.24-.25.42-.45.55-.2.13-.44.19-.73.19-.42,0-.74-.14-.95-.43-.22-.29-.33-.69-.33-1.2s.11-.88.34-1.16c.23-.28.56-.42.99-.42s.73.14.95.43c.22.29.33.69.33,1.2,0,.32-.05.6-.15.84"/><polygon class="cls-1" points="54.62 38.78 55.62 38.78 55.62 36.92 57.34 36.92 57.46 36.09 55.62 36.09 55.62 34.92 57.75 34.92 57.75 34.09 54.62 34.09 54.62 38.78"/><path class="cls-1" d="M61.64,34.09h-1.56v4.69h1.53c.47,0,.9-.08,1.3-.25.39-.17.71-.43.94-.78.24-.35.36-.79.36-1.31,0-.85-.23-1.46-.67-1.81-.45-.35-1.08-.53-1.89-.53M62.96,37.34c-.12.21-.31.36-.56.44-.25.08-.58.12-.99.12h-.33v-2.92h.56c.34,0,.62.05.84.14.22.09.39.25.5.46.11.21.17.5.17.86,0,.39-.06.69-.19.9"/><path class="cls-1" d="M68.04,36.82c0,.36-.08.65-.24.87-.16.23-.43.34-.82.34-.41,0-.69-.11-.85-.34-.16-.22-.24-.54-.24-.94v-2.65h-1v2.78c0,.39.07.73.21,1.03.14.3.36.54.66.72.3.18.69.26,1.16.26.41,0,.78-.07,1.1-.21.32-.14.57-.36.75-.66s.28-.69.28-1.17v-2.76h-1v2.73Z"/><path class="cls-1" d="M73.19,36.56c-.14-.11-.31-.2-.51-.25.24-.09.42-.23.54-.4.12-.18.18-.37.18-.57,0-.25-.07-.47-.2-.65-.13-.19-.32-.33-.58-.43-.26-.1-.57-.15-.94-.15h-1.71v4.69h1.84c.57,0,1.01-.12,1.32-.36.31-.24.46-.58.46-1.02,0-.16-.03-.31-.1-.46-.07-.14-.17-.27-.3-.39M70.96,34.9h.68c.23,0,.4.04.52.13.12.09.18.22.18.39,0,.38-.27.57-.8.57h-.58v-1.09ZM72.34,37.79c-.13.11-.34.16-.64.16h-.74v-1.19h.77c.27,0,.47.05.6.16.13.11.2.25.2.43s-.07.33-.19.44"/><path class="cls-1" d="M75.53,34.09l-1.68,4.63v.06h1.08l.37-1.12h1.74l.38,1.12h1.09v-.06l-1.68-4.63h-1.28ZM75.57,36.83l.59-1.79.6,1.79h-1.19Z"/><rect class="cls-1" x="79.14" y="34.09" width="1" height="4.68"/><path class="cls-1" d="M87.67,10.93l1.94.07,3.38,3.13c-.04,1.29-.66,2.33-1.32,3.42-.22.36-.45.74-.65,1.13-.03.06-.07.13-.1.19h0s-.32.68-.32.68l-.02.04h0c-.39.87-.73,1.81-1.01,2.8-.6,2.17-.87,4.47-.79,6.86.14,4.48,1.54,8.95,4.04,12.92,1.08,1.7,2.31,3.31,3.68,4.76l.04.04c1.82,1.92,3.93,3.58,6.3,4.93,2.47,1.41,7.19,3.96,10.98,5.2l.12.04.12-.04c3.8-1.25,8.51-3.79,10.98-5.2,2.37-1.35,4.49-3.01,6.3-4.93l.04-.04c1.37-1.46,2.61-3.06,3.68-4.76,2.51-3.97,3.9-8.44,4.04-12.93.07-2.38-.19-4.69-.79-6.86-.28-1-.62-1.94-1.01-2.81h0s-.31-.65-.31-.65l-.04-.07h0c-.03-.06-.07-.13-.1-.19-.21-.39-.43-.77-.65-1.13-.66-1.09-1.29-2.13-1.32-3.42l3.38-3.13,1.94-.07c.15,0,.29-.1.35-.24l1.73-4.26c.06-.14.03-.3-.08-.41h0c-.1-.11-.26-.15-.41-.11l-4.37,1.4c-.15.05-.25.18-.27.33l-.21,1.93-5.84,5.41-.08-.12c-.32-.51-.66-1.08-1.03-1.73-.41-.72-.8-1.44-1.2-2.18-.22-.41-.47-.9-.74-1.43l.58.07-2.16-3.04-1.54-2.09s-.47-.62-1.08-1.23l-.21-.2c-.14-.13-.26-.24-.37-.33-.05-.04-.1-.09-.16-.13-.05-.04-.1-.08-.16-.12-.07-.05-.14-.1-.21-.15l-.11-.07c-.22-.12-.44-.22-.66-.29-.38-.12-.71-.14-.92-.14-.18,0-.33.01-.49.03-.72.14-1.29.62-1.54,1.29-.12.3-.41.87-1.05,1.31l-.05.04c-.05.04-.16.11-.26.17-.2.11-.33.18-.47.19-.04,0-.06,0-.08,0-.02,0-.04,0-.06-.01-.01,0-.03-.01-.05-.02-.23-.12-.39-.42-.52-.71-.19-.41-.35-.84-.51-1.27-.13-.34-.25-.65-.37-.96-.02-.05-.04-.1-.07-.15l-.05-.12c-.4-.83-.94-1.31-1.7-1.5-.31-.08-.64-.1-.85-.1-.16,0-.32.01-.47.03-.14.01-.28.04-.4.07-.45.12-.68.39-.82.54-.02.02-.09.05-.13.06-.11.04-.45.15-.74.42-.51.47-.39,1.11-.27,1.36.17.36.47.46.47.46,0,0-.11-.18-.14-.4,0-.06,0-.11,0-.15,0,0,.02,0,.02,0,.13.05.23.08.29.08.1,0,.18-.02.22-.03,0,0,0,0,0,0,.03,0,.09.02.16.05.02,0,.03.02.04.03l.07.07.24.25c.07.07.13.16.17.25.15.34.19.65.12.93-.08.32-.23.54-.44.68-.22.14-.49.17-.72.1l-.06-.02c-.41-.15-.66-.32-.69-.34-.63-.43-.93-1.01-1.04-1.31-.24-.66-.82-1.15-1.51-1.28-.18-.03-.33-.04-.48-.04-.33,0-.65.05-.95.14-.22.07-.43.16-.64.28-1.14.7-2.26,2.18-2.31,2.24l-.78,1.05-.76,1.04-2.16,3.04.58-.07c-.28.55-.53,1.03-.74,1.43-.36.67-.77,1.43-1.2,2.18-.38.67-.72,1.23-1.03,1.73l-.08.12-5.84-5.41-.21-1.93c-.02-.15-.12-.28-.27-.33l-4.37-1.4c-.14-.05-.3,0-.41.11-.1.11-.13.27-.08.41l1.73,4.26c.06.14.2.24.35.24M100.79,9.09s.13-.02.23-.04c.29-.06.58-.15.85-.28l-.52.6.96-.15c.23-.03.45-.09.66-.16.25-.09.5-.2.73-.34l-.12.16.89-.16c.68-.12,1.31-.42,1.84-.86l.59-.09c.19-.03.36-.07.53-.12l-.21.24.74.03c.05,0,.11,0,.16,0,.31,0,.62-.04.92-.12-.1.11-.21.21-.32.3l-.32.26.3.28s.34.3.87.31c-.01.05-.03.09-.06.13,0,0-.21.31-.21.31h.01s.01.01.01.01l.3.18s.06.03.1.05c.05.02.1.04.15.06.02.13.06.25.11.37.09.2.21.38.3.59.08.18.14.37.17.56,0,0,0,0,0,0,0,.04.01.09.02.13,0,.05.01.11.01.16,0,.09,0,.17,0,.26,0,0-.04.62-.57,1.76-.48,1.11-.8,1.77-1.51,2.32-.46.35-.91.54-1.22.65.23-.53.46-1.09.68-1.67.12-.32.24-.66.36-1,.2-.58.38-1.15.54-1.7.24-.83.45-1.64.62-2.4-.09.34-.56,2.03-1.08,3.46-.22.6-.45,1.16-.67,1.55-.01.02-.02.04-.04.07-.12.23-.28.45-.45.65-.63.74-1.34,1.14-1.8,1.38-.22.12-.41.2-.53.26.03-.03.08-.08.14-.14.12-.13.39-.43.85-1.53.27-.66.46-1.26.46-1.29.11-.4.18-.7.21-.87.28-1.25.58-2.57.78-3.42-.28,1.13-.56,2.09-.8,2.87-.46,1.46-.86,2.43-1.55,3.27-.75.91-1.45,1.17-1.79,1.26-.17.05-.31.07-.41.08.27-.49.52-.99.77-1.52.06-.13.12-.25.17-.38.91-2.01,1.53-3.96,1.93-5.78.11-.47.2-.93.28-1.39l-.03.02c-.11.47-.22.92-.33,1.35-.45,1.67-.93,3.01-1.34,4.02-.29.71-.56,1.32-.96,1.9-.17.25-.37.5-.6.75-.81.88-1.7,1.39-2.31,1.67.41-.62.83-1.3,1.23-2.02.05-.08.09-.16.13-.24.93-1.73,1.58-3.38,2.05-4.85-.5,1.27-1.02,2.3-1.44,3.05-.4.73-.77,1.31-1.11,1.79-.85,1.2-1.48,1.69-1.87,1.92-.07.04-.13.08-.19.1,0,0-.02.01-.03.01-.06.03-.12.06-.17.08-.07.03-.13.06-.2.09-.06.03-.12.05-.17.07-.15.06-.29.1-.42.14-.01,0-.02,0-.03,0,0,0,0,0,0,0-.06.02-.12.03-.17.04.03-.04.06-.08.09-.12,0,0,0,0,0,0,0,0,.01-.01.02-.02.07-.09.14-.2.22-.32.07-.1.13-.19.21-.3,0,0,0,0,0,0,.03-.05.06-.1.1-.15,0,0,.01-.02.02-.02.04-.06.08-.11.12-.17.24-.37.55-.84.88-1.39.36-.6.74-1.29,1.1-2.05.73-1.56,1.14-2.89,1.24-3.32.02-.09.03-.14.02-.15-.01,0-.03.06-.07.19-.21.69-.91,3.09-2.74,5.33-.27.33-.56.65-.87.96-.05.05-.1.1-.15.14t0,0s-.1.09-.15.14c-.03.02-.05.05-.08.07-.07.06-.13.12-.19.17-.1.09-.2.17-.29.24,0,0,0,0,0,0,0,0-.02.01-.03.02-.05.04-.09.07-.14.11,0,0,0,0-.01,0-.05.04-.1.08-.15.12,0,0,0,0,0,0-.43.31-.7.44-.85.5-.37.15-.7.22-.93.25.02-.03.04-.06.05-.08.03-.05.06-.09.07-.11.25-.33.5-.67.76-1.04.05-.07.1-.15.15-.22,0,0,0,0,0,0,.04-.05.07-.1.11-.16,0,0,0,0,0-.01.03-.05.07-.1.1-.15,0,0,.01-.02.02-.03.07-.11.15-.21.22-.32.07-.1.14-.21.21-.31.04-.06.08-.12.11-.17.04-.05.07-.11.11-.16,0,0,0,0,0-.01.08-.13.17-.25.25-.38.36-.58.71-1.16,1.05-1.76.54-.96.97-1.76,1.2-2.19.3-.57.69-1.31,1.12-2.18M112.14,4.84c.2-.28.31-.62.31-.99,0-.18-.03-.36-.08-.52,0,.19-.04.38-.11.55h0c.02-.09.03-.18.03-.29,0-.06,0-.11-.01-.17-.02-.17-.07-.33-.14-.49-.03-.07-.06-.15-.1-.21-.02-.03-.04-.05-.06-.08-.06-.09-.13-.17-.21-.24-.04-.03-.08-.07-.12-.1-.05-.04-.11-.07-.17-.11-.01-.01-.02-.02-.03-.03,0,0,0,0,0-.01-.03-.08.04-.15.04-.15h0s0,0,0,0h0c-.17-.05-.23.07-.23.07-.16-.16-.38-.08-.38-.08h0s.02-.03.03-.05c.03-.03.06-.04.11-.06,0,0,.13-.02.31,0,.03,0,.05,0,.08.01,0,0,.01,0,.02,0,.02,0,.03,0,.05,0h0,0,0s0,0,0,0c.08,0,.19-.01.28-.06,0,0,0,0,.01,0h0,0s-.15.02-.3.02h0s-.18-.04-.21-.06c-.07-.02-.13-.04-.24-.03-.18.02-.26.1-.29.15-.02.03-.02.06-.02.06-.14-.12-.31-.04-.33-.03.02-.11.07-.18.07-.18.18-.36.55-.46.55-.46.01.02.02.05.04.07.02.03.05.04.08.07.03.03.06.06.1.08.01,0,.02.01.03.01,0,0,0,0,0,0-.01-.02-.03-.03-.04-.05-.04-.05-.07-.11-.07-.18,0-.06.02-.12.07-.15.03-.02.05-.04.08-.05.04-.02.21-.11.21-.11-.02.05.03.21.03.21h0c.02-.24.11-.35.11-.35.09-.13.27-.25.63-.31.08-.01.16-.02.23-.03.03,0,.06,0,.09-.01.09,0,.19,0,.28,0,.03,0,.06,0,.08,0,.03,0,.06,0,.09,0,.02,0,.05,0,.08,0,.03,0,.06,0,.09,0,.02,0,.03,0,.05,0,.03,0,.07,0,.1.01.09.02.19.04.28.06.12.03.24.08.34.13.04.02.07.04.1.06.07.04.13.08.19.13,0,0,0,0,0,0t0,0s.06.05.08.08c0,0,0,0,0,0,.01.01.02.02.03.03h0s.06.06.09.1c.02.03.04.06.07.09.02.03.04.06.06.09.02.03.04.07.06.1.03.05.06.1.09.15,0,.01.01.02.02.04.04.07.07.14.11.22.01.02.02.05.03.07,0,0,0,0,0,.01-.2-.22-.49-.43-.52-.45.09.09.18.19.27.3,0,0,0,.01.02.02.05.06.09.12.13.18.03.04.06.08.09.12.02.03.04.05.05.08,0,0,0,0,0,.01.03.05.09.15.09.15.03.04.04.07.08.14.03.06.06.11.11.21.01.02.02.04.03.05.01.03.02.05.03.07,0,0,0,0,0,0-.01-.01-.02-.03-.03-.04-.01-.02-.02-.03-.04-.04-.03-.03-.05-.06-.08-.08-.05-.06-.1-.1-.14-.12-.1-.08-.21-.17-.22-.16,0,.01.02.03.03.04,0,0,0,.02.02.02.03.04.05.07.06.08.01.02.03.04.04.06.02.04.05.07.07.11.1.16.18.34.26.51.09.18.17.37.26.55.23.5.22.49.27.6.04.09.09.17.14.26.04.06.08.13.12.19.13.18.28.35.46.49.21.16.44.24.7.22.31,0,.54-.14.77-.27.2-.11.33-.22.36-.24.83-.57,1.17-1.33,1.29-1.62.16-.44.54-.77,1.01-.86.09-.01.21-.03.36-.03.14,0,.42.01.76.11.13.04.31.11.5.22.89.55,1.81,1.68,2.04,1.98.04.05.06.08.06.08l.16.22.62.83.27.36.12.16.37.51,1.28,1.81h0c-.28-.03-.7-.12-1.16-.35-.45-.22-.76-.5-.95-.69,0,0-.3-.27-.76-.89,0,0,0,0-.01-.01-.07-.1-.15-.21-.23-.33-.09-.12-.17-.26-.27-.4.69,1.25,1.2,2.01,1.49,2.41.03.04.06.08.09.12,0,0,.01.02.02.03.02.02.03.04.05.06,0,0,.01.02.02.02.03.03.04.06.06.08.04.05.06.07.06.07-.21-.03-.41-.08-.61-.15-.63-.21-1.18-.62-1.6-1.13-.07-.09-.16-.2-.25-.32-.04-.05-.08-.1-.12-.16-.08-.11-.17-.23-.26-.36-.05-.06-.09-.13-.14-.2,0-.01-.02-.02-.03-.03-.03-.05-.07-.1-.11-.16-.09-.13-.18-.27-.27-.41,0,0,0,0,0-.01-.09-.14-.17-.28-.26-.43-.09-.15-.17-.31-.26-.47,0,0,0-.01,0-.02-.01-.03-.03-.06-.04-.09-.07-.13-.13-.26-.19-.39,0,0,0,0,0,0,.61,1.4,1.11,2.36,1.46,2.96.34.6.54.85.54.85-.64-.11-1.21-.4-1.68-.79,0,0,0,0,0,0-.02-.01-.03-.03-.05-.05-.06-.05-.11-.1-.16-.16-.05-.05-.11-.11-.18-.19-.15-.16-.06-.06-.49-.52-.23-.25-.66-.72-1.23-1.33.1.2.21.4.33.61.07.11.13.23.21.35.08.13.17.26.27.4.03.04.05.08.08.12.16.22.31.41.47.6-.18-.03-.36-.07-.53-.12-.57-.18-1.07-.51-1.49-.94,0,0,.01.02.02.03.06.09.12.18.17.26.01.02.03.04.04.06.1.15.2.28.28.39.11.15.2.26.26.34,0,0,0,0,0,0,.06.08.1.12.11.13-.05,0-.1,0-.15,0-.71,0-1.39-.24-1.97-.65,0,0,.02.04.05.09.02.03.03.05.05.09.05.08.11.18.19.29.05.07.09.14.15.21.19.26.43.55.71.77,0,0-.34.31-.95.19-.02.06-.06.18-.05.34,0,.04,0,.08.02.12.01.05.03.1.05.14,0,.01.01.02.02.04.01.02.03.05.04.07-.02.01-.04.02-.07.03-.03.01-.07.03-.11.04,0,0-.01,0-.01,0-.08.02-.14.02-.19.02,0,.13-.03.32-.12.54-.05.13-.12.23-.18.3t0,0c0-.05,0-.16-.03-.26,0-.01-.02-.03-.02-.04,0,0,0-.02-.01-.02-.01-.02-.03-.04-.05-.07-.04-.04-.08-.07-.12-.09-.03.22-.08.54-.19.92-.04.14-.08.23-.11.31-.03.08-.06.15-.08.25,0,0,0,0,0,0,0,0,0,.02,0,.03-.02.08-.02.16-.03.24,0,.05,0,.1,0,.15,0,.18.02.35.05.48.01.07.03.13.04.18,0,.01.03.13.07.24.04.1.08.2.12.29.09.21.18.42.24.64l.02.06c.19.61.29,1.25.35,1.89.05.46.12.64.14.67,0,0,0,0,0,0h0c-.08-.03-.2-.09-.32-.19-.07-.06-.13-.13-.17-.19-.04-.06-.07-.12-.09-.16.02.13.06.34.19.55.01.02.03.04.04.07.02.04.05.06.07.1.07.1.15.18.2.22h0s0,0,0,0c.02.34.03.69.05,1.04.01.31.02.62.03.92l-.24-.26-.08-.09-.06-.07-.08-.09-.05-.06-.14.59h0s-.26-.46-.26-.46h0s-.05.13-.05.13l-.04.1-.06.15-.07.17h0s-.06-.21-.06-.21l-.15-.55c-.09-.34-.21-.6-.3-.8-.04-.1-.09-.24-.14-.4-.04-.13-.1-.37-.14-.68-.04-.31-.03-.55-.03-.55,0,0-.13.28-.09.98,0,0-.01,0-.02-.01,0,0,0,0,0,0,0,0,0,0,0,0-.06-.05-.13-.11-.19-.19-.04-.05-.07-.09-.1-.14-.04-.07-.06-.12-.09-.19-.03-.06-.07-.13-.08-.18h0s-.13.22,0,.48c0,0-.6-.2-1.17.53-.04.04-.07.09-.11.13h0s0,0,0,0c-.04-.05-.07-.09-.11-.13-.57-.72-1.17-.53-1.17-.53h0c.06-.12.07-.24.05-.33,0,0,0,0,0-.01,0-.02,0-.04-.01-.05,0,0,0,0,0,0,0-.02,0-.03-.01-.04h0s-.01-.03-.01-.03t0,0s0,0,0,0h0c-.04.13-.11.32-.27.5-.07.08-.13.14-.19.19,0,0,0,0,0,0,0,0,0,0,0,0,0,0-.01,0-.02.01h0c0-.09,0-.15,0-.22s0-.16,0-.22c0-.08-.01-.14-.02-.2,0-.03,0-.07-.01-.1h0c-.03-.16-.06-.23-.06-.23,0,0,0,.24-.03.55-.04.31-.1.55-.14.68-.05.16-.1.29-.14.4-.09.2-.2.46-.3.8l-.21.76h0s-.07-.17-.07-.17l-.06-.15-.04-.1-.05-.12h0s0-.01,0-.01l-.26.46h0s-.14-.59-.14-.59l-.05.06-.08.09-.06.07-.08.09-.24.26c0-.31.02-.61.03-.92.01-.35.03-.7.05-1.04.09-.07.21-.2.32-.39.12-.22.17-.42.19-.55-.04.08-.11.23-.26.35-.12.1-.24.16-.32.19h0s.09-.15.15-.68c.06-.64.16-1.28.35-1.89l.02-.06c.07-.22.15-.43.24-.64.04-.09.08-.19.11-.29.04-.12.07-.23.07-.24.01-.05.03-.11.04-.18.03-.13.05-.29.05-.48,0-.05,0-.1,0-.15,0-.08-.01-.15-.03-.24,0-.01,0-.02,0-.03,0,0,0,0,0,0,0,0,0,0,0,0h0s0,0,0,0c-.02-.1-.05-.17-.08-.25-.03-.07-.06-.16-.11-.31-.11-.38-.16-.7-.19-.92h0s-.08.05-.12.09c-.04.04-.06.09-.08.13-.04.11-.04.21-.03.26t0,0h0s-.06-.08-.09-.13c-.03-.05-.06-.11-.09-.17h0s-.02-.08-.04-.12c-.02-.05-.03-.1-.04-.14,0-.03-.02-.07-.02-.1-.01-.07-.02-.13-.02-.18h0s-.11,0-.19-.02c0,0-.01,0-.02,0-.04-.01-.08-.03-.11-.04-.03-.01-.05-.02-.07-.03h0c.04-.06.08-.14.11-.25.01-.04.02-.08.02-.12.01-.15-.02-.28-.04-.34-.61.12-.95-.19-.95-.19.46-.37.83-.93,1.02-1.23-.02.03-.04.06-.06.1.02-.04.04-.07.06-.1,0,0,0-.01.01-.02,0,0,0,0,0,.01,0,0,0,0,0-.01.01-.03.03-.05.04-.07,0,0,0,0,0,0,0-.01.01-.02.02-.03,0,0,0,.01-.01.02,0,0,0-.01.01-.02,0,0,0-.01.01-.02s0-.01,0-.02c0,0,0,0,0,0,0,0,.01-.02.01-.02,0,0,0,0,0-.01,0,0,0,0,0,.01,0-.02.01-.03.01-.03h0s0,0,0,0c-.58.4-1.26.65-1.97.65-.05,0-.1,0-.15,0,.02-.02.18-.21.45-.58.02-.02.03-.04.04-.06-.01.02-.03.04-.04.06.03-.05.07-.09.11-.15-.01.02-.02.03-.03.04,0-.01.02-.03.03-.04.08-.11.17-.25.27-.39,0,0-.01.02-.02.03.01-.02.02-.04.04-.06,0,0,0,0,0,0,.01-.02.02-.03.03-.05,0,0,0,0,0,0-.01.02-.02.03-.03.05.01-.02.02-.03.03-.05-.41.43-.92.76-1.48.94-.17.05-.35.09-.53.12.16-.18.31-.38.47-.6.37-.52.66-1.02.89-1.48h0c-.56.61-1,1.08-1.23,1.33-.41.45-.33.36-.49.52-.07.08-.13.14-.18.19-.07.07-.14.14-.21.2-.47.4-1.05.68-1.69.79,0,0,.19-.25.54-.85.34-.6.84-1.56,1.46-2.96,0,0,0,0,0,0h0c-.04.08-.07.16-.11.23,0,0,0,0,0,0-.61,1.23-1.4,2.26-1.82,2.79-.42.51-.97.92-1.6,1.13-.19.07-.4.12-.6.15,0,0,.65-.75,1.78-2.8,0,0,0,0,0,0-.74,1.16-1.26,1.63-1.26,1.63-.19.2-.51.47-.95.69-.2.1-.39.17-.57.23-.23.07-.43.1-.59.12h0s0,0,0,0l1.28-1.81.37-.51.38-.52.78-1.05s1.08-1.42,2.1-2.06c.19-.11.37-.18.51-.22.33-.1.61-.12.76-.11.15,0,.27.01.36.03.35.07.65.27.85.56.07.1.12.2.16.31.04.09.09.23.18.39.03.06.07.12.11.18.03.04.05.09.09.13.2.3.5.63.91.92.08.06.39.26.84.41.03,0,.06.02.08.03.5.16,1.05.06,1.45-.29.11-.09.2-.2.28-.31M120.05,2.81c.17-.15.39-.26.62-.3-.23.05-.45.15-.62.3M128.2,11.27c.23.43.66,1.23,1.2,2.19.34.59.68,1.18,1.05,1.76.08.13.16.26.25.38,0,0,0,0,0,.01.04.05.07.11.11.16.04.06.08.12.12.17.07.1.14.21.21.31.07.11.15.21.22.32,0,0,.01.02.02.03.03.05.07.1.1.14,0,0,0,0,0,.01.04.05.07.1.11.16,0,0,0,0,0,0,.05.07.1.15.15.22.26.37.51.71.76,1.04.01.02.04.06.07.11.02.03.04.06.05.08-.23-.04-.56-.1-.93-.25-.16-.06-.43-.19-.85-.5h0s-.1-.07-.15-.12c0,0,0,0-.01-.01-.04-.03-.09-.07-.14-.11,0,0-.02-.01-.03-.02,0,0,0,0-.01,0-.09-.07-.18-.15-.28-.24-.06-.06-.13-.11-.19-.17-.03-.03-.05-.05-.08-.07-.05-.05-.1-.09-.15-.14-.05-.05-.1-.1-.15-.14-.32-.31-.61-.63-.87-.96-1.83-2.24-2.53-4.64-2.74-5.33-.04-.13-.06-.2-.07-.19,0,0,0,.05.02.15.09.43.5,1.77,1.24,3.32.36.76.74,1.46,1.1,2.05.33.55.63,1.02.87,1.39.04.06.08.12.12.17,0,0,.01.01.02.02.03.05.07.1.1.15,0,0,0,0,0,0,.07.11.14.21.21.31.08.12.16.23.22.32,0,0,0,.01.01.02,0,0,0,0,0,0,.03.04.06.08.09.12-.05-.01-.11-.03-.17-.04,0,0,0,0,0,0-.01,0-.02,0-.03,0-.13-.04-.27-.08-.42-.14-.06-.02-.11-.04-.17-.07-.06-.03-.13-.05-.2-.08-.06-.03-.11-.05-.17-.08,0,0-.02,0-.03-.01-.06-.03-.12-.06-.19-.1-.4-.24-1.03-.73-1.87-1.92-.34-.47-.7-1.06-1.11-1.79-.42-.76-.94-1.78-1.44-3.05.47,1.47,1.12,3.12,2.05,4.85.04.08.09.16.13.24.4.73.82,1.4,1.23,2.02-.61-.28-1.5-.78-2.31-1.67-.23-.25-.42-.5-.6-.75-.4-.58-.67-1.2-.96-1.9-.41-1.01-.89-2.35-1.34-4.02-.11-.43-.23-.88-.33-1.35l-.03-.02c.08.45.17.91.28,1.39.41,1.82,1.02,3.77,1.93,5.78.06.13.11.25.17.38.25.53.51,1.03.77,1.52-.1-.01-.24-.04-.4-.08-.34-.1-1.03-.36-1.79-1.26-.69-.84-1.09-1.81-1.55-3.27-.24-.77-.53-1.74-.8-2.87.2.84.5,2.16.78,3.42.04.17.1.47.21.87,0,.03.19.62.47,1.29.46,1.1.72,1.4.84,1.53.06.06.11.11.14.14-.12-.05-.31-.14-.53-.26-.46-.25-1.17-.65-1.8-1.38-.17-.2-.33-.41-.45-.65-.01-.02-.02-.04-.04-.07-.22-.39-.45-.94-.67-1.55-.52-1.43-.99-3.12-1.08-3.46.17.76.37,1.56.62,2.4.16.55.34,1.12.54,1.7.12.34.24.68.36,1,.22.58.45,1.14.68,1.67-.31-.1-.76-.29-1.22-.65-.71-.56-1.03-1.21-1.51-2.32-.53-1.13-.57-1.76-.57-1.76,0-.08,0-.17,0-.26,0-.06,0-.11.01-.16,0-.04.01-.09.02-.13,0,0,0,0,0,0,.03-.19.09-.38.17-.56.09-.2.21-.39.3-.59.05-.12.09-.24.11-.37.05-.02.1-.03.15-.06.04-.02.07-.04.1-.05l.3-.18h.01s.01-.01.01-.01c0,0-.21-.31-.21-.31-.03-.04-.05-.09-.06-.13.53-.01.84-.28.87-.31l.3-.28-.32-.26c-.11-.09-.22-.19-.32-.3.3.08.61.12.92.12.05,0,.11,0,.16,0l.74-.03-.21-.24c.17.05.35.09.54.12l.59.09c.53.45,1.16.74,1.84.86l.89.16-.12-.16c.23.14.48.26.73.34.21.07.44.13.66.16l.96.15-.52-.6c.27.13.56.22.85.28.11.02.23.04.23.04.43.87.82,1.61,1.12,2.18M137.64,22.59c.58,2.1.84,4.34.77,6.65-.14,4.36-1.5,8.71-3.94,12.58-1.05,1.67-2.26,3.23-3.6,4.66l-.04.04c-1.77,1.88-3.83,3.49-6.14,4.8-2.42,1.38-7.03,3.87-10.76,5.11-3.73-1.24-8.34-3.73-10.76-5.11-2.31-1.31-4.37-2.93-6.14-4.8l-.04-.04c-1.34-1.42-2.55-2.99-3.6-4.66-2.44-3.87-3.8-8.22-3.94-12.58-.07-2.31.19-4.55.77-6.65.25-.9.55-1.74.88-2.52l10.03,10.46c-.07.37-.14.76-.19,1.14-.65-1.46-1.03-1.87-1.11-1.94-.1-.09-.23-.13-.37-.1-.13.03-.24.13-.28.25-.01.04-.33.96.18,2.18.44,1.04,1.03,1.56,1.37,1.74-.02.42-.03.8-.03,1.16,0,.13,0,.26,0,.38-1.01-1.46-1.51-1.79-1.56-1.82-.11-.07-.26-.08-.38-.02-.12.06-.21.17-.23.3,0,.04-.14,1.01.6,2.11.63.93,1.32,1.32,1.68,1.43.05.49.11.97.2,1.46-1.01-1.26-1.5-1.56-1.59-1.61-.12-.06-.26-.06-.38,0-.12.07-.2.18-.21.32,0,.04-.07,1.02.74,2.06.76.97,1.53,1.29,1.89,1.34.13.47.27.94.43,1.39-1.06-.85-1.53-1.03-1.62-1.05-.13-.04-.27,0-.37.08-.1.09-.16.22-.14.35,0,.04.12,1.01,1.14,1.87.92.79,1.69.92,1.91.94.24.48.51.94.81,1.41-1.41-.6-1.98-.64-2.08-.64-.14,0-.26.07-.33.18-.07.11-.09.25-.03.38.04.1.45.95,1.62,1.47.5.22.99.35,1.45.38.28.02.5,0,.63-.03l.09.12c.21.25.43.51.67.77-1.18-.35-1.65-.34-1.75-.34-.14.01-.25.09-.32.21-.06.12-.06.26,0,.38.02.04.5.89,1.75,1.32.32.11.63.18.94.22.17.02.33.03.48.03.31,0,.54-.04.67-.08.38.33.76.65,1.16.95.08.06.16.12.24.18-1.55-.2-2.08-.07-2.15-.05-.13.04-.23.14-.27.26-.04.13-.01.27.07.37.03.03.65.79,1.96.98.33.05.66.07.96.05.63-.03,1.05-.2,1.26-.33.34.22.65.41.94.59.73.44,1.53.68,2.33.69h.05c.78-.01,1.58-.25,2.3-.68.28-.17.59-.36.94-.59.2.12.62.29,1.26.33.3.02.63,0,.96-.05,1.31-.19,1.93-.95,1.96-.98.09-.1.11-.24.07-.37-.04-.13-.14-.23-.27-.26-.02,0-.55-.15-2.14.05.08-.06.17-.13.26-.19.38-.29.76-.6,1.14-.93.13.04.36.08.67.08.16,0,.32-.01.48-.03.3-.04.62-.11.94-.22,1.25-.43,1.73-1.29,1.75-1.32.07-.12.07-.26,0-.38-.06-.12-.18-.2-.32-.21-.09,0-.57-.01-1.74.33.24-.26.46-.52.66-.77.03-.03.05-.07.08-.1h0c.14.02.35.04.63.02.46-.03.95-.16,1.45-.38,1.21-.54,1.61-1.43,1.62-1.47.05-.12.04-.26-.03-.38-.07-.11-.2-.18-.34-.18-.06,0-.63.03-2.07.63.3-.46.56-.93.8-1.4.23-.02.99-.16,1.9-.94,1-.86,1.13-1.83,1.14-1.87.02-.13-.03-.27-.14-.35-.1-.09-.24-.12-.37-.08-.05.02-.52.17-1.61,1.05.16-.45.3-.92.42-1.39.32-.03,1.1-.34,1.88-1.34.82-1.04.75-2.02.75-2.06,0-.13-.09-.25-.21-.32-.12-.06-.26-.06-.38,0-.09.05-.58.35-1.58,1.6.08-.48.15-.96.19-1.45.35-.11,1.05-.51,1.67-1.43.75-1.1.61-2.07.61-2.11-.02-.13-.1-.25-.23-.3-.12-.06-.26-.05-.38.02-.05.03-.55.36-1.56,1.82,0-.12,0-.25,0-.38,0-.37-.01-.76-.03-1.16.34-.18.92-.7,1.36-1.73.51-1.21.2-2.15.18-2.18-.04-.13-.15-.22-.28-.25-.13-.03-.27,0-.37.1-.07.07-.46.48-1.1,1.92-.05-.38-.12-.76-.19-1.13l10.02-10.45c.34.77.64,1.62.88,2.52M93.64,14.66l2.11,1.96-.06.09-.06.09c-.37.52-.78,1.12-1.33,1.9l-.34.49.59-.09.78-.12c.37-.06.73-.15,1.07-.29.09-.04.28-.11.59-.31l-.11.16-.4.56.66-.15.87-.2s0,0,.01,0l5.47,5.08c-.03.16-.04.3-.03.41-.18.31-.35.63-.52.96-.34-1.72-.67-2.22-.7-2.27-.08-.11-.21-.17-.34-.17-.11,0-.21.05-.28.13l-.05.06c-.05.09-.52.91-.28,2.17.21,1.08.66,1.66.86,1.88-.19.5-.36,1-.51,1.5-.73-1.73-1.17-2.18-1.22-2.23-.1-.09-.24-.13-.37-.1-.13.03-.24.13-.28.25-.01.04-.27.79.05,1.82l-8.42-8.78c.07-.15.15-.29.23-.44.2-.38.42-.74.64-1.1.6-.99,1.22-2.01,1.38-3.25M98.85,18.46c.18-.07.35-.13.5-.19l-.2.29-.07.11-.23-.21ZM102.07,17.99c.44,0,.85-.07,1.23-.2.08-.03.15-.05.22-.08l-.11.12.62-.03c.17,0,.34-.03.49-.06.24-.05.61-.15,1.04-.37h.02l.07-.05c.18-.09.38-.22.6-.36l-.34.54.66-.2.6-.18.18-.06c.52-.18,1-.43,1.41-.75.34-.26.63-.6.88-.94-.03.34-.05.68-.08,1.01v.13c-.03.37-.04.68-.05,1-.01.31-.02.62-.03.93l-.02.94v.4s-.07.07-.1.09c-.04.02-.1.03-.16.04-.11.02-.24.04-.36.11-.36.22-.41.74-.32,1.13.01.05.03.08.04.12-.07.05-.11.09-.11.09l-.06.06c-.84.65-1.61,1.44-2.28,2.33l-.53-.49c1.04-1.31,1.22-1.86,1.25-1.96.04-.14,0-.29-.1-.39-.1-.1-.24-.15-.38-.13-.04,0-1.07.17-1.96,1.25-.02.03-.04.05-.06.08l-3.84-3.57.07-.03c.41-.19.8-.41,1.16-.66l-.09.16h.43ZM111.02,19.53c.12.17.32.18.49.19.15,0,.24,0,.33.08,0,0,0,0,0,0,0,0,0,0,0,0-.02,0-.03,0-.05,0-.29.08-.54.19-.76.32-.01,0-.04.01-.05.02-.22.13-.29.18-.41.29-.02.02-.05.04-.07.07,0,0-.02.01-.02.02,0,0-.01.01-.02.02-.02.02-.04.05-.05.08,0,.01,0,.03,0,.05,0,0,0,0,0,0,0,.01,0,.03,0,.04h0s.03.07.06.1c.02.02.04.03.06.05.01.01.03.02.04.03.04.03.06.09.05.13,0,.01-.01.03-.03.05-.02.02-.04.05-.05.09-.03,0-.06-.01-.09-.01-.05,0-.09.01-.12.04-.01.01-.02.02-.03.04-.06-.04-.11-.07-.14-.1-.03-.03-.05-.05-.06-.07,0,0-.02-.03-.03-.06,0,0-.02-.06-.02-.11h0s0-.03,0-.04c.02-.07.09-.12.16-.18.06-.05.12-.1.16-.16h0c.06-.09.11-.18.15-.28,0,0,0,0,0,0,.04-.09.08-.19.11-.3,0-.02,0-.04,0-.06-.01-.02-.03-.03-.05-.04,0,0-.01,0-.02,0-.04,0-.07.02-.08.06-.05.17-.11.32-.19.45,0,0,0,0,0,0-.02.03-.03.05-.05.07-.03.04-.08.08-.13.12-.07.05-.14.11-.18.19-.01.02-.02.05-.03.08-.01.05,0,.11,0,.16h0s0,.04.01.06c.01.05.03.11.01.15-.01.05-.07.09-.12.09h-.02s-.05,0-.08.01c-.03-.06-.06-.11-.1-.13,0,0,0,0,0,0-.02-.01-.04-.02-.06-.02,0,0-.01,0-.02,0-.02,0-.03,0-.05.01,0-.03-.01-.07-.02-.12h0c0-.07-.01-.13,0-.21,0,0,0,0,0-.01,0,0,0,0,0,0,.01-.05.02-.1.06-.14.03-.03.07-.05.16-.09.04-.01.08-.03.11-.05.09-.05.17-.1.23-.17.18-.18.28-.44.27-.74,0-.04-.04-.08-.08-.08-.02,0-.04,0-.06.02-.02.02-.02.04-.02.06,0,.18-.03.43-.22.62-.05.05-.12.1-.2.14-.03.01-.06.03-.09.04-.08.03-.17.06-.23.14-.06.08-.07.16-.08.25,0,.03,0,.07-.02.09,0,0,0,0,0,0,0,0,0,.02,0,.03-.02.04-.05.09-.1.13-.02.02-.05.04-.07.04,0,0,0,0,0,0,0-.03,0-.06,0-.09h0c.01-.22-.02-.34-.1-.38-.02,0-.04-.01-.06-.01v-.02c0-.06.02-.13.05-.18.03-.05.08-.08.14-.09.19-.05.42-.08.57-.22.13-.12.21-.27.29-.42.02-.03.03-.06.05-.09.18-.32.32-.68.41-1.06l.17.71.28-.5s0,.11,0,.11c-.02.21-.04.47.1.66M116.25,18.34c.11.28.22.56.33.84.05-.09.1-.17.15-.26,0,0,0,0,.01,0,.02.19.02.34-.08.46-.19.22-.56.07-.82.35,0,0,0,0-.01.01-.02,0-.04-.01-.07-.02-.07-.01-.14-.02-.2-.03-.24-.06-.49-.12-.71-.15l-.24-.97c.03.06.05.12.08.17,0,.01.01.02.02.03.02.04.04.07.05.1.07.15.1.19.14.23.06.07.17.21.36.27.15.05.28.04.36.03l-.16-.51-.05-.16-.05-.16c.06.14.16.31.28.45.13.13.29.23.5.23.07,0,.13,0,.21-.03-.03-.1-.07-.2-.1-.3-.02-.06-.04-.13-.07-.19-.26-.74-.51-1.49-.77-2.23.16.15.25.34.35.53.07.15.13.29.18.41.11.29.2.6.31.89M116.19,17.17c.04.1.08.22.13.34-.04-.12-.09-.24-.13-.34M116.94,18.86s0-.09-.01-.1l.28.49.17-.71c.09.38.23.74.41,1.06.02.03.03.06.05.09.08.15.16.3.29.42.15.14.38.18.58.22.06.02.1.04.14.09.03.06.04.12.05.18v.02s-.04,0-.06.01c-.08.04-.11.16-.1.38,0,.03,0,.06,0,.09h0s-.05-.03-.07-.05c-.03-.03-.05-.05-.07-.08-.01-.02-.02-.04-.03-.06,0,0,0,0,0-.01,0,0,0,0,0,0,0-.03-.01-.07-.02-.11,0-.08-.02-.17-.08-.24-.06-.08-.15-.11-.23-.14-.03-.01-.06-.02-.09-.04-.08-.04-.14-.09-.2-.14-.19-.19-.23-.44-.22-.62,0-.02,0-.04-.02-.06-.02-.01-.03-.02-.06-.02-.05,0-.08.03-.08.08,0,.3.09.57.28.74.07.06.14.12.23.17.03.02.07.03.11.05.09.04.13.06.16.09.04.04.05.09.06.15,0,0,0,0,0,0h0c.02.08.01.14,0,.2,0,0,0,.01,0,.01,0,.04-.01.08-.02.11-.02,0-.03-.01-.05-.01,0,0-.01,0-.02,0-.02,0-.05.01-.07.03t0,0s-.07.07-.1.13c-.03-.01-.06-.01-.08-.01h-.02c-.06,0-.11-.05-.12-.1-.01-.04,0-.09.01-.15,0-.01,0-.03.01-.05h0c.01-.05.02-.11,0-.17,0-.02-.01-.04-.02-.07-.04-.09-.12-.15-.19-.21-.05-.04-.1-.08-.13-.12-.01-.02-.02-.04-.04-.06,0,0,0,0,0,0-.09-.14-.15-.29-.2-.47,0-.04-.04-.06-.08-.06,0,0-.02,0-.02,0-.02,0-.04.02-.05.04-.01.02-.01.04,0,.06.03.11.07.22.12.31,0,0,0,0,0,0,.04.09.09.18.15.26,0,0,0,0,.01.01.04.06.1.1.15.15.07.06.14.11.16.18,0,.01,0,.03,0,.04,0,0,0,0,0,0,0,.05-.02.09-.02.1,0,.03-.02.05-.03.06-.01.02-.03.05-.06.07-.03.03-.07.06-.13.1,0-.01-.02-.03-.03-.04-.03-.03-.07-.04-.12-.04-.03,0-.06,0-.09.01-.01-.04-.03-.07-.05-.09-.02-.02-.03-.04-.03-.05,0-.04.02-.1.05-.13.01,0,.02-.02.04-.03.02-.01.04-.03.06-.05.03-.03.05-.06.06-.09h0s0-.02,0-.02c0-.02,0-.05,0-.07h0s-.02-.05-.03-.07-.03-.03-.04-.04c-.01-.01-.03-.03-.04-.04-.01-.01-.02-.02-.04-.04-.01-.01-.03-.02-.04-.03-.04-.04-.1-.1-.19-.16,0,0,0,0,0,0-.01,0-.02-.01-.04-.02-.19-.12-.49-.28-.97-.42-.02,0-.03,0-.05,0,0,0,0,0,0,0h0s0,0,0,0c.09-.07.18-.07.34-.08.17-.01.36-.02.49-.19.14-.19.12-.45.1-.66M121.61,16.95c.23.15.44.28.63.38.36.19.74.33,1.1.4.16.03.33.05.5.06l.62.03-.11-.12c.07.03.15.06.22.09.38.13.79.2,1.21.2h.43l-.09-.17c.37.25.76.47,1.18.66l.07.03-3.84,3.57s-.04-.05-.06-.07c-.89-1.09-1.92-1.25-1.96-1.26-.14-.02-.28.03-.38.13-.1.11-.14.25-.1.39,0,.02.16.59,1.25,1.97l-.53.49c-.64-.85-1.36-1.6-2.16-2.23h0s-.08-.07-.08-.07c0,0-.09-.08-.22-.18.02-.04.03-.07.04-.13.09-.39.03-.91-.32-1.13-.12-.08-.25-.1-.36-.11-.06-.01-.12-.02-.16-.04-.03-.02-.07-.05-.09-.09v-.4s-.03-.94-.03-.94c0-.31-.01-.62-.03-.93-.01-.31-.02-.63-.04-.95v-.17c-.03-.34-.06-.68-.09-1.02.24.35.53.68.88.94.42.32.89.57,1.4.75l.79.24.66.2-.34-.54ZM128.66,18.85l-4.53,4.22s0-.02-.01-.03c-.08-.16-.15-.31-.2-.4l4.16-3.86c.1.02.22.04.37.05l.21.02ZM128.58,18.32h.01c.12.05.27.11.45.18l-.2.19-.2-.3s-.05-.05-.07-.07M123.11,42.52c-.14.34-.3.68-.49,1.03-.05.09-.11.19-.16.3-.42.74-.94,1.49-1.58,2.28-.9,1.11-1.96,2.13-3.13,3.02l-.03.02c-.39.3-.74.54-.91.66-.31.22-.62.43-.93.63-.34.23-.63.41-.9.57,0-.02,0-.04,0-.06-.02-.22-.03-.42-.05-.61v-.12c-.01-.06-.02-.11-.02-.17v-.11s-.01-.08-.01-.1c0-.03,0-.07,0-.1v-.07c-.18-2.04-.24-4.12-.3-6.15v-.15c.04-.26.07-.45.1-.68.01-.08.02-.16.03-.23.99,1.44.73,4.54.72,4.57,0,.1.05.19.14.23.09.04.2,0,.26-.07,1.1-1.38,1.11-2.63.75-3.6.77,1.12.96,2.44.96,2.46.02.1.09.18.2.19.1.01.2-.04.24-.14.01-.03.92-2.39-.99-4.1.78.32,1.64.87,1.87,1.74.02.09.1.15.22.16.1,0,.19-.08.21-.18,0-.04.2-1-.46-1.93-.46-.65-1.22-1.11-2.25-1.37.61-.15,1.54-.18,2.42.61.07.06.17.08.26.03.08-.05.13-.14.11-.23,0-.03-.12-.7-.85-1.17-.65-.41-1.55-.53-2.7-.34.64-.39,1.55-.75,2.47-.4.09.03.19,0,.26-.07.06-.08.06-.18,0-.27-.11-.17-1.16-1.55-3.6-.28.14-.4.47-.98,1.27-1.28.09-.04.15-.13.14-.23,0-.1-.08-.18-.19-.2-.16-.02-1.56-.19-2.25,1.17-.71-1.39-2.19-1.18-2.26-1.17-.1.02-.17.1-.18.2,0,.1.05.2.14.23.8.3,1.13.88,1.27,1.28-2.43-1.27-3.49.11-3.6.28-.05.08-.05.19,0,.26.06.08.17.11.26.07.92-.34,1.83.01,2.47.4-1.14-.19-2.05-.07-2.7.34-.71.45-.84,1.1-.85,1.17-.02.09.03.19.11.23.08.05.19.03.26-.03.87-.79,1.81-.76,2.42-.61-1.03.26-1.78.72-2.25,1.37-.66.93-.47,1.89-.46,1.93.02.1.11.18.23.18.1-.01.18-.08.2-.17.23-.86,1.09-1.41,1.87-1.73-1.92,1.71-1,4.07-.99,4.09.04.09.13.15.24.14.1-.01.18-.09.2-.19,0-.02.19-1.34.96-2.46-.36.97-.35,2.21.75,3.6.06.08.17.11.26.07.09-.04.15-.13.14-.23,0-.03-.27-3.14.72-4.58,0,.07.02.15.03.23.03.24.07.44.11.66v.19c-.06,2.02-.12,4.1-.3,6.14v.07s-.01.06-.01.08c0,.04,0,.07,0,.1v.13c-.01.05-.01.1-.02.17v.14c-.02.18-.03.37-.05.59,0,.02,0,.03,0,.05-.26-.16-.54-.33-.89-.56-.31-.2-.62-.41-.93-.63-.3-.22-.62-.44-.92-.67-1.19-.91-2.25-1.93-3.15-3.04-.64-.79-1.16-1.53-1.57-2.26-.05-.12-.11-.23-.17-.32-.19-.35-.35-.69-.49-1.03-.63-1.5-1.06-3.14-1.28-4.86,0-.2-.03-.4-.07-.57-.04-.36-.06-.72-.08-1.07h21.21c-.02.36-.05.72-.08,1.07-.04.17-.06.35-.06.53-.22,1.74-.66,3.39-1.29,4.9M123.26,45.9c0,.11-.02.24-.04.37-.1.15-.21.29-.3.42-.04.04-.08.07-.12.1-.12-.29-.25-.79-.23-1.49,0-.18.02-.35.05-.52.05-.28.14-.54.26-.78.03-.07.07-.14.1-.19.05-.09.1-.16.14-.2.05.21.18.86.14,2.29M121.57,49.22h.04c1.32-.47,1.98-.55,2.22-.57-.14.2-.57.73-1.45,1.04-.29.1-.58.17-.85.2-.28.04-.51.03-.68.02.24-.22.48-.45.71-.69M120.75,49.15c-.13.13-.26.25-.4.37h-.01c-.06-.26-.14-.84.08-1.66.04-.14.08-.28.14-.41.26-.64.63-.99.79-1.11,0,.22-.03.88-.39,2.26-.04.17-.11.35-.21.55M121.46,48.42c.4-1.61.33-2.18.32-2.24,0-.04-.02-.08-.04-.12.13-.17.26-.34.38-.51.02.86.25,1.41.38,1.67v.02s-.08.09-.11.13c-.29.35-.6.71-.92,1.05M118.15,52.06h0c.2-.07.38-.11.54-.14.73-.11,1.34-.16,1.82-.16.23,0,.38.01.47.02-.17.17-.69.62-1.62.75-.31.05-.6.06-.87.05-.41-.02-.69-.1-.86-.17.17-.12.35-.24.52-.35M117.26,51.9c-.03-.28-.01-.85.35-1.63.07-.14.14-.27.23-.4.36-.55.77-.81.95-.9-.04.22-.18.83-.76,2.08-.08.18-.21.38-.37.58-.13.09-.26.18-.39.27M118.54,51c.66-1.46.7-2.02.7-2.12,0-.04,0-.08-.02-.12.23-.2.45-.41.67-.62-.16.9-.01,1.49.07,1.72-.35.31-.71.6-1.06.87-.12.09-.24.18-.36.27M116.85,52.17c-.33.22-.64.41-.92.57-.63.38-1.31.58-2.01.6-.67-.01-1.36-.22-2-.6-.27-.16-.57-.35-.91-.57.05-.23.13-.83-.2-1.72.28.19.55.38.83.56.38.25.68.44.96.61.44.26.88.4,1.34.41.44,0,.89-.15,1.32-.41.3-.18.61-.37.97-.61.28-.18.55-.37.83-.56-.34.89-.26,1.5-.2,1.73M111.93,46.3c-.89-1.61-.2-2.97.59-3.85.07-.08.08-.2,0-.29-.02-.02-.03-.04-.05-.05l.07-.1-.1.08c-.06-.03-.14-.03-.2,0-1.25.71-1.86,2.04-2.15,2.94-.08-.99.2-2.52,2.34-3.45.1-.05.16-.16.13-.27-.03-.11-.14-.18-.25-.16-.1.02-2.17.36-3.22,1.55.06-.19.16-.41.3-.61.5-.7,1.41-1.15,2.72-1.34.09-.01.17-.09.19-.18.02-.09-.02-.19-.11-.24-.06-.04-1.35-.75-2.73-.19.03-.03.07-.05.11-.07.71-.45,1.87-.48,3.35-.06.1.03.2-.02.25-.1.05-.09.04-.2-.03-.27-.06-.06-1.27-1.27-2.78-1.28.54-.2,1.42-.21,2.74.6.07.04.16.04.23,0,.07-.04.11-.12.11-.21,0-.04-.06-.91-.77-1.58.42.17.83.54,1.04,1.3.03.1.12.16.22.16s.19-.07.22-.16c.21-.76.62-1.13,1.04-1.3-.71.67-.77,1.54-.77,1.58,0,.08.04.16.11.2.07.04.16.04.23,0,1.32-.8,2.2-.8,2.74-.6-1.5.01-2.72,1.22-2.78,1.27-.07.07-.09.18-.04.27.05.09.16.13.26.1,1.48-.41,2.63-.39,3.34.06.04.02.08.05.11.08-1.39-.57-2.66.15-2.73.19-.08.05-.12.15-.11.24.02.09.09.17.19.18,1.3.18,2.22.63,2.72,1.33.15.21.24.42.3.61-1.05-1.19-3.12-1.53-3.22-1.55-.11-.02-.22.05-.25.16-.03.11.02.22.12.27,2.13.93,2.41,2.46,2.34,3.45-.28-.9-.9-2.23-2.15-2.94-.06-.04-.14-.04-.2,0l-.09-.08.07.1s-.04.03-.06.05c-.07.09-.06.21,0,.29.78.88,1.48,2.24.58,3.85.02-1.3-.12-3.54-1.23-4.51-.04-.04-.09-.06-.15-.06-.03,0-.06,0-.08.02-.08.03-.13.1-.14.19,0,.07-.01.15-.02.23v.06s.12.01.12.01l-.13.03c-.01.1-.03.23-.05.39-.02.13-.04.26-.06.39-.02.11-.04.22-.06.35l-.1.53c-.02.13-.05.25-.1.49v.02s-.2-1.04-.2-1.04c-.02-.12-.04-.24-.06-.35-.02-.12-.04-.25-.06-.39-.02-.15-.04-.29-.05-.39v-.1c-.02-.08-.03-.15-.03-.23,0-.09-.06-.16-.14-.19-.08-.03-.17-.02-.23.04-1.11.97-1.25,3.21-1.23,4.51M114.49,51.35c-.13.04-.27.06-.41.07h-.3c-.14,0-.28-.02-.41-.07.01-.11.02-.22.03-.32.02-.23.04-.44.05-.63v-.1c.01-.06.02-.12.02-.18v-.14s.01-.04.02-.08v-.15c.12-1.3.19-2.6.24-4.06.07.16.34.16.41,0,.05,1.46.12,2.76.23,4.06v.07s.01.05.01.1c0,.02,0,.04,0,.08v.12c.01.06.02.12.02.18v.11c.02.19.03.4.05.62,0,.1.02.21.03.33M114.6,51.37h.02s-.02,0-.02,0h0ZM107.97,48.14c.22.21.44.42.67.62-.01.04-.02.08-.02.12,0,.1.04.65.7,2.11-.12-.09-.24-.18-.37-.27-.35-.27-.7-.55-1.05-.86.13-.37.2-.98.07-1.72M109,48.93h0s0,0,0,0h0ZM109.17,51.92c.16.02.34.07.53.13.17.12.35.24.52.36-.2.08-.49.15-.86.17-.27.02-.56,0-.87-.05-.92-.14-1.45-.58-1.61-.75.22-.03.88-.07,2.29.14M110.21,51.63c-.16-.21-.29-.41-.37-.59-.59-1.27-.73-1.89-.76-2.08.17.09.59.35.95.9.09.13.16.27.23.4.37.78.38,1.36.35,1.63-.13-.09-.26-.18-.39-.27M106.4,48.41c-.32-.34-.63-.69-.92-1.05-.04-.05-.08-.1-.12-.15.16-.29.37-.83.38-1.67.12.17.25.34.38.51-.02.04-.03.08-.04.12-.01.06-.08.63.32,2.23M106.29,49.22c.24.24.48.47.72.69-.17.02-.39.02-.67-.02-.27-.04-.56-.1-.85-.2-.88-.3-1.32-.84-1.45-1.04.22.01.87.09,2.22.55h.03ZM106.45,46.29h0,0ZM106.91,48.6c-.37-1.39-.39-2.05-.39-2.26.16.12.53.48.79,1.11.05.13.1.27.14.41.22.82.14,1.4.08,1.67l-.04-.03c-.12-.11-.25-.23-.37-.34h0c-.1-.21-.17-.39-.21-.56M105.07,46.8s-.07-.06-.11-.09c-.11-.14-.21-.28-.31-.42-.02-.14-.04-.26-.04-.38-.04-1.43.08-2.07.14-2.29.03.04.08.11.13.19.04.06.08.13.12.21.12.24.2.49.25.77.03.18.05.35.06.52.02.7-.12,1.19-.23,1.49M109.09,21.88c.14.01.21-.1.21-.1.15.19.4.36.78.41h.04c.35-.02.31-.28.31-.28,0-.03,0-.06-.01-.1.01,0,.02,0,.03,0,.07.01.13.02.2.02.1,0,.18-.01.26-.02.22-.03.31-.11.31-.12.1-.07.18-.21.12-.36,0,0-.1-.28-.58-.28,0,0,0,0,0,0,.01-.09-.03-.19-.1-.25,0,0-.02-.01-.03-.02l.13-.06c1.07-.46,2.16-.71,3.26-.68,1.06,0,2.13.26,3.2.74h.01s-.01.01-.02.02c-.07.06-.11.16-.1.25-.56.08-.58.3-.58.3-.05.13.02.27.12.34,0,0,.13.09.34.13.05,0,.14.02.23.02.07,0,.13,0,.2-.02.01,0,.02,0,.03,0-.01.04-.01.08-.01.1v.07s.06.08.06.08c.07.08.16.12.25.12h0s.03,0,.03,0h.04c.36-.05.59-.23.74-.41.05.05.13.08.21.08h.09l.08-.05c.88.67,1.69,1.49,2.4,2.46l.24.34c.07.1.13.2.2.3.07.11.14.22.22.35.02.05.05.1.08.16l.02.03c.03.05.06.1.1.16l.03.05c.39.68.73,1.41,1.02,2.16.04.15.1.31.17.46.67,1.87,1.04,3.88,1.11,5.97,0,.07,0,.16,0,.24,0,.17,0,.34,0,.51,0,.14,0,.28,0,.42h-4.65c.34-.54.4-1.33.42-1.66v-.07c.02-.16.15-.42.22-.55l.02-.05s.01-.08.01-.12l.36-1c.02-.07.01-.14-.03-.2-.04-.06-.12-.09-.18-.08l-3.9.33-.28.02c-.07,0-.14.06-.17.12l-.34.77c-.17-.29-.3-.67-.39-1.12-.02-.08-.03-.16-.04-.24-.01-.08-.03-.16-.04-.24-.04-.29-.06-.6-.08-.95,0-.05,0-.11,0-.16v-.19c0-.06,0-.12,0-.18.02-1.28.32-2.47.86-3.45.74-1.34,1.58-2.32,2.5-2.89.05-.03.09-.08.1-.15.01-.06,0-.12-.03-.18-.03-.05-.09-.09-.15-.1-.06-.01-.12,0-.18.03-2.37,1.48-4.36,2.76-6.34,4.12l-.39-1.35-.07-.12h-.02s-.04-.02-.06-.02c-.05,0-.1,0-.14.04-.04.03-.07.08-.07.13l-.16,1.96c-.13.1-.26.19-.39.29l-.36.27s-.07.05-.1.08c-.17.13-.33.26-.5.38l-.44.34c-1.83,1.47-3.41,2.98-4.73,4.28-.04.04-.07.1-.07.16,0,.06.02.12.07.17.04.04.09.06.17.07l2.71-.03c.4.55.86,1.06,1.38,1.53h-5.76c0-.14,0-.28,0-.42,0-.16,0-.33,0-.48,0-.1.01-.2.01-.27.07-2.09.45-4.09,1.11-5.93.08-.16.14-.33.18-.47.29-.76.64-1.49,1.01-2.15l.04-.06c.04-.05.07-.11.1-.16l.02-.03c.03-.06.06-.12.1-.18.07-.11.14-.22.21-.33.07-.1.13-.2.22-.32l.22-.31c.71-.97,1.52-1.79,2.39-2.45.03.02.11.06.18.07M108.92,20.91s0-.07,0-.11c0,0,0,0,0,0,0,0,.02,0,.02,0h0s0,0,0,0c0,0,.01,0,.01,0,0,0,.04.04.04.26,0,.06,0,.14-.01.24l-.06-.09c0-.09-.02-.19-.02-.28M109.5,21.32s.03-.04.03-.04c.1.1.13.19.14.25,0,.01,0,.03.01.05.02.09.06.15.09.2-.07-.06-.17-.16-.23-.31-.02-.05-.03-.1-.04-.15M110.11,21.94h0,0M110.43,21.36s0-.05.01-.05c.02-.02.13-.02.28.09h0c.07.05.15.09.23.11-.17,0-.36-.06-.53-.15M113.31,19.53s.04-.02.08-.04c.06-.03.11-.07.16-.12.13-.13.23-.28.3-.45.04-.09.06-.19.08-.29.02.1.04.2.08.29.07.17.17.32.3.45.05.05.1.09.16.12.03.02.05.03.07.03-.42-.04-.83-.04-1.24,0M117.41,21.28s.02.04.01.06c-.19.1-.4.18-.59.17.09-.03.18-.06.27-.13h0c.17-.12.29-.12.32-.1M118.1,21.75s.06-.1.08-.19c0-.02,0-.04.01-.05.01-.06.04-.14.14-.24,0,0,.01,0,.03.04,0,.04-.02.09-.04.14-.06.15-.16.25-.22.3M118.87,21.3c-.01-.11-.02-.2-.02-.26,0-.23.04-.27.04-.27,0,0,0,0,.01.01,0,0,0,0,0,0h0s.01,0,.02,0c0,0,0,0,0,0,0,.04,0,.07,0,.11,0,.15,0,.3-.03.44,0,.02,0,.05,0,.07,0,0,0,0,0,0,0-.02-.02-.03-.03-.04,0,0,0,0,0,0h0s0-.04,0-.06M123.07,24.15l-.37.33c-.07-.04-.17-.08-.32-.15-.06-.03-.14-.06-.2-.09l.53-.49c.12.14.26.29.36.39M121.53,21.25c.25.06.94.3,1.57,1.07.05.06.1.13.15.19.04.06.08.11.12.16.04.06.08.12.11.17.07.11.12.21.17.31.06.12.11.24.16.37l.02.05c.02.06.03.11.05.16v.03s.03.08.03.12v.07c.02.06.03.12.03.15-.02-.01-.05-.03-.07-.05h-.01s0,0,0,0c-.04-.03-.08-.06-.13-.09l-.03-.02c-.05-.04-.11-.08-.17-.12-.1-.07-.2-.15-.3-.24-.09-.07-.17-.16-.25-.24-.03-.03-.06-.07-.09-.1l-.17-.21c-.81-1.02-1.1-1.57-1.19-1.78M107.25,32.12s-.03-.01-.05-.03h-.03s-.07-.06-.1-.07c0,0-.02,0-.03,0,.85-.79,1.81-1.64,2.84-2.46l.42-.33c.17-.13.33-.26.5-.39l.42-.31s.05-.04.07-.05l-.38,4.51c-.64.03-1.31.07-2.06.12-.07-.1-.13-.21-.19-.31-.04-.07-.11-.11-.18-.11h-.05c-.16-.03-.33-.11-.47-.17-.17-.08-.35-.18-.55-.3-.05-.03-.1-.06-.15-.1M107.26,33.23c-.67.05-1.24.1-1.65.14.35-.34.74-.71,1.15-1.1,0,.01,0,.02,0,.02l.03.09c.04.09.08.18.12.26.1.19.21.39.34.59M115.02,30.32v.27c.03.34.06.65.11.97.01.08.02.15.04.23.02.08.03.16.05.24.08.36.18.66.31.93-.45-.03-.99-.05-1.62-.05l-1.51-5.21c1.31-.91,2.68-1.81,4.45-2.93-.32.42-.62.89-.91,1.41-.59,1.08-.92,2.46-.92,3.87v.05c0,.08,0,.16,0,.23M115.82,33.45l-.09.2h-.23c-.18.02-.35.03-.53.04-.19,0-.39.02-.58.03h-.23s-.12-.35-.12-.35c.71,0,1.3.03,1.77.07M113.01,33.38c.22,0,.44,0,.65,0l.11.37-.6.02s-.09,0-.14,0c0,0,.02-.01.02-.02.04-.04.07-.1.07-.17,0-.08-.05-.15-.11-.2M113.53,32.91c-.26,0-.53,0-.8.01l-.54-4.6,1.34,4.59ZM112.49,33.69l.03.21c-.21,0-.42,0-.62,0h-.28c-.11,0-.21,0-.31,0-.08,0-.02,0-.1,0l.02-.19h1.27ZM111.24,33.49l.02-.17c.44-.02.75-.04,1.18-.05l.03.21h-1.22ZM112.26,32.93c-.32.01-.65.02-.98.04l.4-4.78.03-.02.34,2.95.21,1.81ZM108.98,33.51l-.05-.07c.67-.04,1.25-.09,1.95-.12v.17s-1.9.02-1.9.02ZM110.85,33.7l-.02.18c-.11,0-.09,0-.19-.01-.24,0-.45-.02-.64-.04l-.83-.06-.04-.06,1.72-.02ZM107.76,32.94c.07.03.14.06.24.1l.09.03h.04s.05.03.07.03l.07.02s.04,0,.06.01c.03.05.06.1.09.15l.07.1h-.54s-.1-.14-.1-.14c-.09-.13-.17-.26-.25-.39.06.03.11.06.17.08M108.79,33.85c.17.23.35.45.53.66.27.32.57.62.9.92h-.19c-.06,0-.13-.01-.19-.03-.06-.02-.12-.06-.17-.1-.51-.43-.97-.91-1.39-1.44h.51ZM109.67,34.21s-.04-.04-.05-.06l.36.03c.19.02.41.03.65.04.21,0,.43.01.66.02.1,0,.21,0,.32,0h.28c.24,0,.51,0,.77,0,.17,0,.34,0,.52,0h.38c.28-.02.56-.03.84-.04.2,0,.39-.02.58-.03.18,0,.36-.02.54-.03.15-.01.3-.02.44-.03h.19c.29-.03.58-.06.85-.08.29-.03.57-.05.83-.08.1-.01.2-.02.3-.04l.16-.02c.13-.02.25-.04.37-.05l.47-.08c.09-.02.18-.04.25-.06,0,0,.01,0,.02,0l-.73,1.75h-7.59s-.1-.01-.15-.03c-.06-.02-.12-.06-.17-.1-.4-.33-.77-.7-1.11-1.09M116.76,32.95l.11-.25,1.22-.11-.11.25-1.22.11ZM117.76,33.33l-.07.16c-.11.01-.22.02-.34.04l.06-.16.35-.03ZM116.89,33.41l-.06.16c-.11.01-.23.02-.35.03l.07-.16.34-.03ZM118.46,33.39l.06-.13.34-.03-.04.1c-.07.01-.14.02-.22.04-.04,0-.09.01-.13.02M119.38,33.21v-.03s.11,0,.11,0c-.03,0-.05.02-.08.03,0,0-.02,0-.03,0M119.83,33.93l.02-.05c-.09.96-.33,1.33-.52,1.48-.03.02-.05.04-.08.05-.01,0-.02,0-.03.01l.61-1.49ZM118.73,32.77l.11-.25,1.2-.11-.09.24-1.21.12ZM105.53,24.32c-.12.05-.2.09-.27.13l-.42-.37c.1-.09.23-.22.32-.32l.53.49c-.05.02-.11.05-.16.07M105.15,23.03c-.04.05-.08.1-.15.18l-.02.03s-.06.07-.09.1c-.08.08-.16.17-.25.24-.1.09-.2.17-.3.24-.06.04-.11.08-.19.14-.04.03-.08.06-.12.08l-.03.02s-.05.03-.07.05c0-.04,0-.09.02-.15l.02-.08s.02-.07.02-.11v-.03c.02-.05.04-.1.06-.16l.02-.05c.04-.12.1-.24.16-.37.05-.1.11-.21.17-.31.03-.06.07-.11.11-.17.04-.05.08-.11.12-.17.05-.06.09-.13.15-.19.62-.76,1.31-1,1.57-1.06-.09.21-.38.76-1.18,1.78M103.98,24.61s.08-.02.12-.05c.02-.01.07-.04.13-.08l.37.34c-.33.18-.69.4-1.09.66.15-.3.31-.59.47-.87M103.6,25.96c.55-.36,1.03-.65,1.43-.85.06-.03.11-.06.16-.08h.03c.08-.05.14-.08.2-.1.04-.02.08-.03.11-.04,0,.03-.02.06-.03.09l-.03.07s-.04.07-.07.14c-.03.05-.05.09-.09.14-.02.03-.04.06-.06.09-.14.19-.3.37-.5.53-.08.07-.17.14-.27.21-.71.48-1.28.59-1.56.62.02-.03.03-.07.04-.1l.1-.24c.18-.2.37-.35.54-.47M104.36,26.74c-.05.12-.11.24-.16.36-.02,0-.05,0-.07.01-.14.05-.66.28-1.78,1.23.12-.38.25-.76.39-1.13.01,0,.03,0,.04,0,.18,0,.78-.04,1.58-.48M102.33,26.51c-.19-.25-.46-.72-.6-1.49-.17-.92.08-1.56.18-1.77.1.2.35.79.62,2.2.03.14.04.31.05.49-.09.19-.17.38-.25.57M102.35,28.94c1.05-.93,1.62-1.25,1.84-1.36,0,.04-.02.09-.04.16-.02.08-.06.18-.11.29-.1.24-.25.46-.43.68-.12.14-.24.26-.37.38-.55.48-1.03.69-1.32.79v-.04c.07-.24.12-.48.19-.71.03-.02.06-.05.1-.08.05-.04.1-.07.14-.11M103.35,29.59c-.06.23-.12.46-.17.7-.02,0-.03,0-.04.02-.09.04-.56.3-1.56,1.43.06-.42.13-.83.21-1.24h0s.02-.08.03-.12h0c.29-.07.86-.25,1.53-.79M101.67,32.33c.86-1.01,1.36-1.41,1.58-1.56-.02.18-.08.58-.34,1.05-.1.19-.23.36-.37.53-.43.51-.84.78-1.13.92.02-.23.04-.45.06-.68.06-.1.13-.19.2-.26M101.3,29.79c-.13-.11-.27-.25-.39-.41-.21-.27-.39-.59-.55-.95-.36-.87-.25-1.54-.19-1.77.14.17.52.71,1.07,2.03.07.18.14.39.18.63-.04.16-.08.32-.12.48M101.36,40.44c-.28-.1-.84-.4-1.41-1.13-.58-.74-.65-1.43-.65-1.66.18.13.67.54,1.57,1.68.14.17.27.4.39.67.03.15.07.3.1.44M101.36,35.34c0-.12,0-.24,0-.37,0-.38.01-.79.03-1.2.31-.12.83-.39,1.39-1.02-.03.25-.05.5-.06.77-.02.01-.04.02-.07.04-.08.06-.51.42-1.29,1.78M101.39,36.35c.07-.24.15-.44.24-.6.66-1.18,1.07-1.64,1.22-1.79,0,.04.01.1.02.17,0,.12,0,.26-.01.4-.03.24-.09.47-.18.71-.05.12-.1.24-.17.35-.41.73-.85,1.07-1.09,1.21-.01-.15-.02-.3-.03-.43h0ZM102.7,36.12c0,.17.02.33.03.5-.02.01-.04.03-.06.05-.04.04-.42.46-1.02,1.98-.08-.46-.14-.93-.18-1.39.21-.1.73-.4,1.23-1.14M101.82,39.61c.02-.1.04-.21.07-.3.02-.06.04-.12.06-.19.49-1.32.84-1.88.98-2.07.01.03.02.08.03.13.02.1.05.26.05.47,0,.24-.02.49-.08.74-.03.15-.08.3-.13.44-.27.73-.62,1.16-.86,1.38-.05-.21-.1-.41-.14-.59h0ZM102.1,43.06s.08.07.12.11c.05.12.09.23.14.35.02.06.05.11.07.17l.08.17s.04.09.06.14c-.29-.08-.79-.28-1.37-.78-.7-.6-.91-1.26-.97-1.5.2.09.77.4,1.86,1.33M102.58,42.27c-.18-.51-.34-1.04-.49-1.58.21-.16.66-.57,1.02-1.38.06.27.12.55.19.81-.03.02-.05.05-.07.08-.06.08-.34.55-.65,2.07M102.94,42.74c.26-1.39.51-2,.61-2.21.08.17.26.61.25,1.24,0,.18-.02.36-.06.53-.13.69-.36,1.14-.53,1.4-.05-.08-.11-.17-.18-.27l-.13-.29c0-.15.02-.29.04-.41M104.13,42.66s.03.07.04.11c.07.17.15.34.23.51-.02.02-.03.05-.04.08-.04.09-.22.61-.2,2.17-.28-.44-.53-.88-.76-1.33.19-.22.53-.7.73-1.54M104.13,46.65c.07.1.15.2.22.31l.21.28c-.09,0-.18,0-.27,0-.41-.03-.85-.14-1.3-.35-.85-.38-1.23-.95-1.35-1.16.22.03.87.17,2.17.74.1.05.21.1.33.18M124.28,40.46s0,0,0,0h0s0,0,0,0M123.71,45.54c.02-1.57-.16-2.09-.2-2.18-.01-.03-.03-.06-.04-.08.08-.17.16-.34.23-.51.02-.04.03-.07.04-.11.2.85.55,1.34.74,1.55-.23.45-.48.89-.76,1.33M124.07,46.47c1.3-.58,1.95-.71,2.17-.74-.12.21-.5.78-1.36,1.16-.45.2-.89.32-1.3.35-.1,0-.19,0-.28,0l.26-.35c.06-.09.13-.17.17-.23.12-.08.23-.13.34-.18M124.12,42.31h0c-.03-.18-.05-.35-.06-.53-.01-.63.16-1.07.25-1.24.1.2.35.81.61,2.21.02.12.04.25.04.4l-.11.27c-.08.11-.15.21-.2.29-.18-.26-.41-.71-.53-1.4M124.64,40.2s-.04-.06-.07-.08c.07-.27.13-.54.19-.82.36.81.81,1.22,1.03,1.39-.14.54-.31,1.07-.49,1.59-.31-1.53-.59-2-.65-2.08M125.35,43.85l.07-.16c.02-.05.05-.11.07-.16.05-.12.1-.25.14-.34.04-.04.09-.08.13-.12,1.11-.95,1.68-1.25,1.86-1.34-.05.23-.25.89-.97,1.5-.58.5-1.08.7-1.38.78.02-.05.05-.1.07-.16M125.05,38.83c-.05-.14-.1-.29-.13-.44-.05-.25-.08-.49-.08-.73,0-.21.03-.37.05-.47.01-.05.02-.1.03-.13.13.18.48.73.98,2.07.02.06.04.12.06.19.03.1.05.19.07.29-.04.2-.09.4-.14.61-.23-.21-.58-.64-.86-1.38M125.2,36.67s-.04-.04-.06-.05c.01-.16.02-.33.03-.5.5.74,1.02,1.04,1.23,1.15-.05.46-.11.93-.19,1.4-.6-1.54-.98-1.95-1.02-1.99M125.36,35.58c-.06-.11-.12-.23-.17-.35-.1-.23-.16-.47-.18-.71-.01-.13-.02-.26-.01-.38,0-.08.01-.14.02-.18.15.14.56.6,1.22,1.78.09.16.17.36.24.6,0,.15-.02.3-.03.45-.24-.14-.69-.49-1.09-1.21M125.22,33.56s-.04-.03-.07-.04c-.02-.26-.04-.52-.06-.77.57.63,1.09.91,1.4,1.02.02.43.03.82.03,1.2,0,.12,0,.25,0,.38-.81-1.42-1.25-1.76-1.3-1.79M126.61,40v-.02c.13-.26.26-.48.4-.66.88-1.12,1.38-1.54,1.56-1.67,0,.24-.08.93-.65,1.66-.58.75-1.15,1.04-1.41,1.13.04-.15.07-.3.1-.45M126.57,29.79c-.04-.16-.08-.32-.12-.49h0c.05-.24.11-.45.18-.63.55-1.31.93-1.85,1.07-2.03.06.24.17.92-.19,1.77-.15.36-.33.68-.54.95-.13.16-.27.31-.4.42M126.45,33.27c-.28-.14-.69-.41-1.12-.92-.14-.17-.27-.34-.37-.53-.26-.47-.33-.87-.34-1.05.2.13.7.53,1.58,1.56.06.07.13.16.19.26.02.23.04.46.06.69M124.73,30.31s-.03-.01-.04-.02c-.05-.24-.11-.47-.17-.7.68.54,1.24.72,1.53.78.09.45.18.91.24,1.37-1-1.13-1.47-1.39-1.56-1.44M124.62,29.09c-.14-.12-.26-.24-.37-.38-.18-.22-.33-.45-.43-.69-.04-.1-.08-.19-.1-.27-.02-.07-.03-.12-.04-.17.21.1.77.41,1.84,1.36.04.04.09.07.14.11.03.02.06.05.09.07.07.24.13.49.18.73v.02c-.29-.09-.77-.3-1.31-.79M125.53,26.51c-.08-.19-.16-.38-.24-.56h0c0-.19.02-.35.05-.5.27-1.42.53-2.01.62-2.21.11.21.36.85.18,1.78-.15.76-.42,1.24-.61,1.49M125.52,28.35c-1.13-.96-1.65-1.18-1.79-1.23-.02,0-.04-.01-.06-.01-.05-.12-.1-.24-.16-.36.79.44,1.39.48,1.58.48.02,0,.03,0,.04,0,.14.36.27.74.39,1.12M123.39,26.16c-.1-.07-.19-.14-.27-.21-.2-.16-.37-.34-.5-.53h-.01s-.03-.06-.05-.08c-.03-.05-.06-.1-.1-.17-.02-.04-.04-.08-.06-.11-.01-.02-.02-.05-.03-.07-.02-.03-.03-.07-.04-.09.03,0,.07.02.11.04.05.02.12.05.2.09h.03c.05.04.11.06.17.09.4.2.88.49,1.43.85.17.12.35.27.53.46l.07.17c.03.06.05.12.08.18-.28-.03-.85-.14-1.56-.62M123.26,24.83l.37-.34c.06.04.11.07.13.08.04.02.08.04.13.05.16.28.32.57.47.88-.41-.27-.78-.49-1.1-.67M115.44,17.17c.25.64.49,1.28.71,1.93-.05.02-.13,0-.18-.01-.18-.07-.3-.24-.4-.4-.06-.1-.1-.2-.15-.31-.03-.07-.06-.14-.09-.21-.08-.18-.15-.37-.23-.55-.15-.37-.29-.73-.44-1.1-.01-.03-.03-.07-.04-.1.15-.04.35-.07.48.04.09.09.14.23.18.34.05.12.1.24.15.37M114.98,17.84c.15.47.29.93.43,1.4,0,0-.51.12-.88-1.39l-.29-1.22s.11-.07.17-.11c.05-.03.09-.05.13-.07.15.47.29.93.43,1.4M114.37,17.83c.03.15.06.31.09.46,0,.02,0,.04.01.05.06.34.13.68.19,1.02,0,0-.41-.12-.55-.71,0-.03-.02-.06-.02-.09,0,0-.01-.06-.02-.13-.01-.08-.06-.68-.13-1.5-.07.82-.12,1.42-.13,1.5,0,.07-.02.13-.02.13,0,.03-.01.06-.02.09-.14.6-.55.71-.55.71.06-.34.13-.68.19-1.02,0-.02,0-.04.01-.05.03-.15.06-.31.09-.46.07-.38.13-.77.19-1.15,0,0,0,0,.01,0,.08.06.16.16.23.25.07-.09.15-.18.23-.25,0,0,0,0,.01,0,.06.38.13.77.19,1.15M113.34,17.85c-.38,1.51-.89,1.39-.89,1.39.14-.47.29-.93.43-1.4.14-.46.29-.93.43-1.4.04.02.09.04.13.07.06.04.12.07.17.11l-.28,1.22ZM113.2,16.52c-.15.36-.29.73-.44,1.1-.08.18-.15.37-.23.55-.03.07-.06.14-.09.21-.04.1-.09.21-.15.31-.1.16-.22.33-.4.4-.05.02-.12.04-.18.01.23-.65.46-1.29.71-1.93.05-.12.1-.24.15-.37.05-.12.09-.25.18-.34.12-.12.32-.09.48-.04-.01.03-.03.07-.04.1M111.68,18.75c-.02.06-.05.13-.07.19-.03.1-.07.2-.1.3.07.02.14.03.21.03.41,0,.66-.39.79-.68l-.05.16-.05.16-.16.51c.08.01.21.02.35-.03.2-.07.31-.2.37-.27.03-.04.06-.08.14-.23.01-.03.03-.06.05-.1,0-.01.01-.02.02-.03.02-.05.05-.11.08-.17l-.24.98c-.16.02-.33.06-.49.09,0,0,0,0,0,0-.02,0-.04,0-.06.01h0c-.12.02-.24.04-.36.07-.02,0-.05.01-.07.02,0,0,0,0,0,0-.27-.28-.63-.13-.83-.35-.1-.12-.09-.28-.07-.47,0,0,0,0,0,0,.05.09.1.17.15.26.11-.28.22-.56.33-.84.11-.29.2-.6.31-.89.05-.12.1-.26.18-.41.1-.19.19-.38.35-.53-.26.75-.51,1.49-.76,2.23M103.96,22.64c-.05.1-.12.24-.18.36,0,0,0,0,0,0l-4.37-4.04.06-.02.35-.14,4.14,3.84ZM100.78,33.15v.07s0,.05-.01.08c-.23-.18-.65-.59-.99-1.39-.37-.87-.25-1.54-.2-1.77.14.17.51.7,1.07,2.02.06.15.12.33.16.52l-.02.2c0,.09-.02.18-.02.27M100.79,36.85c-.26-.13-.76-.45-1.26-1.18-.53-.78-.55-1.47-.54-1.7.17.14.63.58,1.45,1.78.11.17.22.38.32.62,0,.16.02.33.03.49M127.09,33.3c0-.05,0-.11-.01-.16l-.04-.45v-.02c.05-.2.1-.37.16-.52.56-1.33.94-1.86,1.07-2.02.06.23.17.91-.2,1.77-.34.81-.76,1.22-.99,1.4M127.11,36.37c.1-.25.21-.46.32-.62.8-1.18,1.28-1.63,1.45-1.77.01.24-.01.92-.54,1.7-.5.73-1,1.05-1.27,1.18.01-.16.03-.33.04-.49M128.05,28.24c.32-1.04.06-1.79.05-1.82-.04-.13-.15-.22-.28-.26-.13-.03-.27,0-.36.1-.05.04-.49.48-1.22,2.22-.15-.51-.32-1.02-.51-1.5.2-.22.65-.8.85-1.87.25-1.29-.26-2.14-.28-2.17-.07-.11-.19-.18-.34-.19-.13,0-.25.06-.33.17-.06.09-.37.59-.7,2.26-.16-.33-.34-.65-.52-.96,0-.11,0-.25-.03-.41l5.48-5.08s0,0,0,0l.86.2.67.16-.4-.56-.11-.16c.31.19.5.27.59.31.34.14.7.24,1.07.29l.78.12.59.09-.34-.49c-.54-.78-.96-1.38-1.32-1.9l-.08-.11-.04-.06,2.11-1.96c.17,1.24.78,2.26,1.38,3.26.19.32.43.71.64,1.1.08.15.15.29.23.44l-8.42,8.78ZM131.71,16.01l-.25-.37,6.07-5.63c.06-.05.09-.13.1-.21l.2-1.86,3.67-1.18.05.05-9.86,9.19ZM96.17,15.98l-9.08-8.4-.88-.85.02-.03,3.79,1.24.2,1.86c0,.08.05.15.11.21l6.07,5.63-.23.34Z"/><path class="cls-1" d="M109.08,5.08c-.24-.11-.47-.3-.62-.48-.51-.58-.62-1.39-1.45-1.63-.3-.09-.58-.06-.83.03-.33.11-.63.32-.94.52.52-.34,1.17-.53,1.74-.22.33.18.58.46.82.74.34.39.76.87,1.28,1.04"/><path class="cls-1" d="M110.58,6.12c-.05-.06-.1-.11-.14-.15h0s-.07-.07-.11-.1c-.03-.02-.06-.04-.08-.06-.15-.1-.3-.18-.46-.24-.11-.04-.23-.08-.35-.1-.11-.02-.17-.02-.23-.02-.03,0-.06,0-.09,0,0,0-.05,0-.1-.01-.21-.04-.39-.13-.39-.13-.24-.12-.41-.29-.48-.37.07.14.21.41.45.54.01,0,.05.03.1.05.07.03.14.05.26.08.05.01.11.03.19.05,0,0,.26.05.53.17.19.09.36.22.5.37.08.09.14.18.18.28,0,0,.02.06.04.13.01.05.02.09.02.14,0,.05,0,.1,0,.15-.02.12-.06.24-.09.33,0,0,0,0,0,.01-.13.3-.26.61-.26.99,0,.2.03.4.09.59.01.04.03.08.04.12.03.08.06.17.1.25l.02.03c.09.18.17.33.14.52v.09s.05-.07.05-.07c.13-.14.03-.37-.03-.52v-.03c-.09-.18-.14-.36-.17-.53-.07-.44,0-.86.12-1.23,0,0,0,0,0-.01.07-.22.16-.41.26-.58.11-.21.1-.46-.03-.65-.01-.02-.03-.04-.04-.06"/><path class="cls-1" d="M120.07,4.04c.24-.28.5-.56.82-.74.58-.32,1.23-.12,1.74.22-.31-.2-.61-.41-.94-.52-.26-.09-.53-.11-.83-.03-.83.24-.94,1.05-1.45,1.63-.16.18-.38.38-.62.48.52-.17.94-.65,1.28-1.04"/><path class="cls-1" d="M117.47,7.42s0,0,0,.01c.12.37.19.79.12,1.23-.03.18-.08.35-.15.53v.03c-.08.15-.18.38-.05.52l.07.07-.02-.09c-.03-.19.05-.35.14-.52l.02-.03c.04-.08.07-.16.1-.25.01-.04.03-.08.04-.12.05-.19.09-.39.09-.59,0-.37-.13-.68-.26-.99,0,0,0,0,0,0-.04-.09-.08-.2-.09-.33,0-.05,0-.1,0-.15,0-.05,0-.09.02-.14.02-.07.03-.12.04-.13.04-.1.1-.19.18-.28.13-.15.31-.29.5-.37.27-.12.53-.17.54-.17.07-.02.13-.03.19-.05.12-.03.2-.05.27-.08.05-.02.09-.04.1-.05.23-.13.38-.4.45-.54-.07.08-.24.25-.48.37,0,0-.18.09-.39.13-.06.01-.1.01-.1.01-.04,0-.06,0-.09,0-.06,0-.12,0-.23.02-.12.02-.24.06-.35.1-.16.06-.32.14-.46.24-.03.02-.06.04-.08.06-.04.03-.08.06-.11.1-.05.04-.09.1-.14.15-.02.02-.03.04-.04.06-.13.2-.14.44-.03.65.09.17.18.37.26.58"/><path class="cls-1" d="M115.5,11.25s-.25.07-.15.71c0,0,.27-.31.15-.71"/><path class="cls-1" d="M115.39,9.53s-.1.05-.19.05c-.2,0-.33-.18-.35-.21.02.05.06.12.12.2.09.11.18.16.22.19.1.08.13.33-.19,1.11.11-.11.23-.24.34-.4.45-.67.42-1.4.39-1.72,0,.04-.02.62-.33.77"/><path class="cls-1" d="M114.85,15.37s-.11,0-.22-.13c.02.1.04.3-.03.53,0,0,0,0,0,0,0,.02-.01.03-.02.05,0,0,0,.01,0,.02-.01.03-.03.07-.04.1-.04.08-.09.15-.13.2,0,0,0,0,0,0,0,0-.01.02-.02.02,0,0,.01,0,.02-.01.02,0,.04-.02.08-.04.03-.01.06-.03.09-.05.05-.03.1-.07.16-.11.02-.02.05-.04.07-.06,0,0,0,0,0,0,.02-.01.03-.03.04-.04,0,0,.02-.02.02-.02.11-.12.22-.28.28-.48.07-.24.05-.46.02-.58,0,.36-.16.61-.31.62"/><path class="cls-1" d="M114.27,11.53c.45-.67.42-1.4.39-1.72-.01.14-.06.5-.23.72-.04.05-.08.08-.14.1-.15.03-.28-.15-.29-.18.05.1.1.22.13.37.11.52-.1.95-.19,1.11.11-.11.23-.24.34-.4"/><path class="cls-1" d="M114.41,13.09c.06-.24,0-.33.03-.55.01-.11.05-.26.15-.43h0c.03-.05.06-.1.1-.16-.06.06-.11.11-.16.16,0,0,0,0,0,0-.09.09-.16.16-.22.22-.05.04-.09.09-.12.15-.08.12-.07.28-.05.41.1.59-.2,1.02-.2,1.02.09-.13.19-.25.28-.37.05-.08.14-.23.19-.43"/><path class="cls-1" d="M114.22,15.32s.26-.19-.04-1.06c0,0-.22.54.04,1.06"/><path class="cls-1" d="M114.28,8.7c.01.1,0,.21,0,.31.03-.01.04-.05.05-.08.05-.15.07-.31.09-.47.02-.16.06-.32.08-.48.01-.14,0-.29-.05-.42-.03-.06-.07-.11-.11-.16-.01-.01-.12-.1-.11-.12-.08.2-.1.37-.1.49,0,.26.06.51.08.6.03.13.06.19.08.33"/><path class="cls-1" d="M114.89,3.68c.06.06.11.09.15.11.08.05.18.14.26.36,0,0,0-.04,0-.11h0s0-.03,0-.05c0,0,0,0,0,0,0-.02,0-.04-.01-.05h0c-.04-.19-.16-.45-.49-.45h0c.02.05.04.13.11.19"/><path class="cls-1" d="M114.97,6.75c.12.24.27.59.31,1.05.02.19.01.36,0,.5.04-.03.1-.08.16-.15.32-.37.26-.92.23-1.18,0-.09-.03-.21-.06-.34,0,0,.01.11,0,.23-.01.1-.04.21-.12.24-.09.04-.25-.04-.52-.35"/><path class="cls-1" d="M114.49,4.87s0,0,0,0c-.01.03-.04.18.21.5.01.02.03.03.04.05.11.13.18.23.23.32.11.21.11.32.11.32,0,0,.01-.12,0-.28,0-.1-.01-.21-.04-.32-.06-.26-.2-.51-.52-.59-.01,0-.02,0-.04-.01"/><path class="cls-1" d="M114.47,2.11c.14,0,.21.03.21.04h0s-.13-.34-.36-.42h0s.08.12.08.2c0,.07-.05.11-.24.07h0s.16.11.3.11"/><path class="cls-1" d="M115.27,14.54s.2.28.08.79c0,0,.29-.3.42-.83.02.35.08.64.08.64,0,0,.02-.6.37-1,.35-.4.34-.93.34-.93.08.2.46.12.46.12-.55-.67-.54-1.11-.52-1.22,0-.02,0-.03,0-.03,0,0-.02,0-.04.03-.04.05-.08.17-.06.5.02.54-.26.86-.26.86-.04-.35-.19-.6-.19-.6,0,0,.06.35-.11.93-.03.08-.04.17-.05.26,0,.07-.02.13-.04.2-.08.23-.22.44-.48.3"/><path class="cls-1" d="M115.55,12.23c-.01.06-.13.62-.28.61-.1,0-.18-.24-.21-.36.04.18.07.44.03.76-.04.37-.16.65-.26.82.19-.18.56-.6.68-1.23.04-.23.05-.43.04-.6"/><path class="cls-1" d="M113.08,14.69s.28-1.04-.43-1.27c0,0-.12.13.18.59.29.46.25.68.25.68"/><path class="cls-1" d="M111.02,7.34c.09-.04.19-.08.3-.14.26-.13.52-.33.51-.61h0s0,0,0,0c-.02.04-.18.47-.46.41-.03,0-.06-.02-.08-.03,0,0,0,0,0,0-.08-.06-.06-.15-.02-.23.03-.07.07-.12.07-.12-.02.01-.05.04-.08.06-.06.06-.13.14-.18.25-.07.17-.07.32-.06.39h0Z"/><path class="cls-1" d="M110.76,8.73c.01.27.15.53.33.86.07.12.13.22.17.29,0-.07,0-.18.02-.32,0-.02.01-.05.02-.07.08-.3.24-.38.34-.76,0,0,0,0,0-.01,0,0,0,0,0-.01.01-.04.02-.09.03-.14.02-.1.03-.21.04-.31,0-.1.02-.18,0-.18-.02,0-.04.18-.17.35-.02.02-.03.04-.05.06,0,0,0,0,0,0,0,0-.01.01-.02.02,0,0,0,0-.01.01-.05.05-.09.07-.15.15-.08.1-.12.19-.14.25-.05-.08-.11-.21-.14-.37-.03-.16-.01-.3.01-.41,0,0,0-.02,0-.03.01-.04.02-.08.04-.11.03-.07.05-.12.07-.15-.03.03-.07.07-.1.12-.02.03-.04.06-.06.09,0,0,0,.01-.01.02-.04.07-.08.14-.12.22-.03.08-.06.17-.07.27,0,.05,0,.1,0,.15"/><path class="cls-1" d="M111.81,10.9c.03.19.1.4.21.65-.02-.04,0-.13-.01-.17,0-.13-.02-.27-.02-.4,0-.27,0-.62-.11-.87,0-.01-.01-.03-.02-.04,0,0-.16.28-.05.83"/><path class="cls-1" d="M112.22,12.1h0c-.03-.11-.08-.14-.08-.14-.02.05-.03.09-.04.14h0c-.06.31.09.58.09.58.07-.3.06-.48.03-.58"/><path class="cls-1" d="M111.31,10.66c.03.08.06.12.06.12.06-.2.07-.35.07-.45,0,0,0,0,0-.01,0-.1-.03-.16-.06-.2-.03-.05-.06-.06-.06-.06-.06.12-.07.25-.07.35,0,.1.03.18.06.25,0,0,0,0,0,0"/><path class="cls-1" d="M113.47,16.14s-.03-.03-.04-.05c-.04-.06-.09-.13-.13-.23,0,0,0-.01,0-.02,0,0,0,0,0,0,0-.02-.02-.04-.02-.06,0,0,0,0,0,0-.07-.24-.05-.44-.03-.54-.11.13-.2.13-.22.13-.15-.01-.31-.25-.31-.62-.03.13-.05.34.02.58.06.21.17.38.3.5,0,0,0,0,0,0,.03.03.05.05.08.07.05.05.11.09.15.12.06.04.12.07.16.1,0,0,0,0,.01,0,.01,0,.02.01.03.02.01,0,.02,0,.03.01,0,0-.01-.01-.01-.02,0,0,0,0,0,0"/><path class="cls-1" d="M111.91,12.86s-.15.25-.19.6c0,0-.28-.33-.26-.86.01-.32-.03-.45-.06-.5-.02-.03-.04-.03-.04-.03,0,0,0,.01,0,.03.02.12.03.55-.52,1.22,0,0,.39.08.46-.12,0,0-.01.53.34.93.35.4.37,1,.37,1,0,0,.07-.28.08-.64.13.53.42.83.42.83-.11-.51.08-.79.08-.79-.26.14-.4-.07-.48-.3-.02-.06-.03-.13-.04-.2-.01-.09-.03-.18-.05-.26-.17-.58-.11-.93-.11-.93"/><path class="cls-1" d="M113.15,11.57c-.04.13-.11.36-.22.36-.16,0-.27-.56-.28-.61-.01.17,0,.37.04.6.01.06.03.12.05.18h0c.15.53.47.88.64,1.05-.09-.17-.21-.46-.26-.82-.01-.08-.02-.15-.02-.22h0c0-.22.02-.4.05-.53"/><path class="cls-1" d="M112.24,1.54s.02.01.03.02c0,0,0,0,.01,0,0,0,0,0,0,0,0,0,0,0,0,0,0,0,0,0,0,0,0,0,0,0,0,0,.01,0,.03.01.04.02.01,0,.03,0,.04.01.02,0,.03,0,.05,0,.01,0,.03,0,.04,0,.02,0,.04,0,.05,0h0s.01,0,.02,0c0,0,.01,0,.02,0,0,0,0,0,0,0h0s0,0,0,0c0,0,0,0,0,0,0,0,0,0,.01,0,0,0,0,0,.01,0,.01,0,.02,0,.03-.01,0,0,0,0,0,0,0,0,0,0,0,0,0,0,0,0,.01,0,0,0,.01,0,.01,0,.02,0,.03-.02.05-.03,0,0,0,0,.01,0,0,0,0,0,.01,0,.02-.01.04-.03.06-.05,0,0,0,0,0,0,0,0,0-.01.01-.02t0,0s.01-.01.02-.02c0,0,0-.01.01-.02t0,0s0,0,0-.01c0,0,0,0,0-.01h0s.02-.03.02-.05c0,0,0,0,0-.01,0,0,0,0,0,0,0,0,0,0,0,0s0,0,0,0c0-.02.01-.04.02-.05,0,0,0-.02,0-.02,0-.01,0-.03,0-.04,0,0,0,0,0,0,0-.01,0-.03,0-.04,0,0,0,0,0-.01,0-.03,0-.06-.01-.09,0,0,0-.02,0-.03-.01-.03-.02-.06-.04-.09h0s0,0,0,0h0,0s.01,0,.02,0c0,0,0,0,.01,0h0s.08,0,.12.01c0,0,0,0,0,0,.04,0,.09.02.13.03,0,0,0,0,.01,0,.02,0,.04,0,.06.01.02,0,.05.01.07.02.05.01.08.02.11.03,0,0,.01,0,.01,0,0,0,0,0,0,0,0,0,0,0,0,0,0,0,0,0,0,0,0,0,0,0,0,0,0,0,0,0,0,0,0,0,0,0,0,0,0,0,0,0-.01,0,0,0,0,0,0,0t0,0s0,0,0,0c-.03-.02-.05-.03-.07-.05,0,0,0,0-.01,0-.01,0-.02-.01-.03-.02,0,0-.02-.01-.03-.02,0,0,0,0,0,0,0,0,0,0-.01,0-.02,0-.04-.02-.05-.03h0s0,0,0,0c-.01,0-.02-.01-.04-.02-.04-.02-.08-.03-.13-.05,0,0,0,0,0,0,0,0-.02,0-.03,0-.01,0-.03,0-.04-.01-.02,0-.04-.01-.06-.02-.04-.01-.08-.02-.11-.03-.01,0-.03,0-.04-.01-.02,0-.04,0-.05-.01-.03,0-.06-.01-.09-.01-.02,0-.04,0-.05,0-.03,0-.06,0-.09,0-.02,0-.04,0-.05,0-.04,0-.08,0-.12.02,0,0-.02,0-.03,0-.03,0-.06.02-.09.03,0,0-.01,0-.02,0-.03.01-.05.02-.08.04-.01,0-.02.01-.03.02-.03.02-.05.03-.08.05,0,0,0,0-.01,0t0,0s0,0,0,0c-.02.01-.03.03-.05.04,0,0,0,0-.01.01,0,0,0,0,0,0-.02.02-.03.04-.04.06,0,0-.01.02-.02.02,0,.01-.02.03-.03.04,0,0,0,0,0,0-.01.02-.03.04-.04.06,0,0,0,0,0,0,0,0,0,0,0,0h0s0,0,0,0t0,0s-.01.01-.02.02c0,0-.01.01-.02.02h0s0,0,0,0c0,0,0,0,0,0,0,0,0,0,0,0,0,0,0,0,0,0h0s-.02,0-.03,0c0,0,0,0,0,0h0s0,0,0,0h0s0,0,0,0c0,0,0,0,.01,0,.01,0,.03,0,.04,0,0,0,0,0,.01,0h.01s0,0,0,0c0,0,0,0,.01,0,.02,0,.03,0,.05,0,.02,0,.04,0,.06,0,0,0,0,0,0,0,0,0,.01,0,.02,0,0,0,0,0,.01,0,.02,0,.04-.02.05-.03.02-.02.03-.04.05-.05,0-.01.02-.02.02-.03,0,0,0,0,.01-.01,0,0,0,0,0,0,0,0,.01-.01.02-.02,0,0,0,0,0,0,.01-.01.02-.03.03-.04h0s-.01.04-.01.06c0,.02,0,.04,0,.06,0,0,0,.01,0,.02,0,0,0,.01,0,.02,0,0,0,0,0,0,0,.02,0,.03,0,.05,0,0,0,0,0,.01,0,0,0,0,0,0,0,0,0,.01,0,.02,0,0,0,0,0,0,0,0,0,0,0,0,0,0,0,0,0,.01,0,0,0,.02,0,.02,0,0,0,0,0,0,0,0,0,0,0,0,0,0,0,.02.01.02,0,0,0,0,0,.01,0,0,0,0,0,.01,0,0,.01.02.01.02,0,0,0,0,0,0h0s0,0,0,.01c0,0,0,.01.01.01,0,0,0,0,0,0,.01.01.02.02.03.03,0,0,.01,0,.02.01,0,0,0,0,.01.01,0,0,0,0,0,0M112.5.92c.15,0,.17.17.17.17-.19-.11-.36,0-.36,0,0-.05.04-.17.19-.18"/><path class="cls-1" d="M116.21,6.97c.12.12.28.21.43.28.02,0,.03.01.05.02.03.01.05.02.08.04.03.01.06.02.08.04,0-.07.02-.22-.06-.4-.02-.03-.03-.06-.05-.09-.01-.02-.03-.04-.04-.06-.06-.08-.12-.14-.16-.16,0,0,.25.32-.04.38,0,0,0,0-.01,0-.1.02-.19-.03-.26-.1-.05-.05-.1-.12-.13-.18-.04-.07-.06-.13-.06-.13,0,.04,0,.07,0,.1.02.11.08.2.16.28"/><path class="cls-1" d="M112.89,6.75c-.21.25-.35.34-.45.36-.07,0-.11-.02-.14-.07-.08-.13-.05-.41-.05-.41-.03.13-.05.25-.06.34,0,.06-.01.13-.02.21-.01.2,0,.44.08.67.04.11.09.21.17.31.06.07.12.12.16.15-.01-.15-.02-.32,0-.5.04-.45.19-.81.31-1.05"/><path class="cls-1" d="M112.86,2.28h0s0,.02,0,.04h0s0-.02,0-.04"/><path class="cls-1" d="M112.82,2.6c.02-.06.03-.12.04-.18,0-.04,0-.07,0-.1,0,.04-.01.08-.03.13-.02.04-.06.14-.16.18-.06.02-.11,0-.14,0-.18-.04-.28-.23-.3-.27h0c.01.09.04.21.11.34.07.14.15.25.22.31.07-.06.2-.19.27-.4"/><path class="cls-1" d="M112.63,4.92c-.08.21-.18.31-.26.36-.04.02-.09.05-.15.11-.06.07-.09.14-.1.19.53,0,.52-.66.52-.66"/><path class="cls-1" d="M116.2,10.38c-.03-.05-.06-.09-.08-.12-.02.07-.04.16-.05.28,0,.05-.01.12,0,.29.01.12.02.25.03.37.02.17.03.34.05.5.08-.17.14-.35.16-.54.03-.2.02-.4-.04-.6-.03-.1-.07-.19-.07-.19"/><path class="cls-1" d="M113.38,9.35c-.04.13-.11.26-.24.31-.02,0-.12.05-.2,0-.1-.06-.14-.22-.08-.4-.05.05-.12.14-.16.28-.03.11-.03.2-.03.26.02.34.26.74.3.82.15-.17.39-.49.52-.97.15-.52.09-.96.05-1.18-.03.3-.08.6-.17.89"/><path class="cls-1" d="M113.79,15.33c-.07.32.12.58.12.58.04-.51-.12-.58-.12-.58"/><path class="cls-1" d="M113.55,6.19c.07.15.09.3.08.42,0,.11-.04.2-.05.24.07-.08.14-.21.2-.37.02-.04.03-.08.04-.13.07-.28.04-.54-.02-.73-.04-.13-.08-.23-.11-.3,0-.01-.02-.03-.02-.04,0,.01.01.03.02.04.04.11.06.21.06.3,0,.14-.06.26-.15.31-.1.05-.21.02-.27,0,.06.05.15.14.22.27"/><path class="cls-1" d="M116.88,8.02s0,0,0,.01c.01.03.02.06.03.1,0,0,0,.02,0,.03.02.11.03.24,0,.38-.03.16-.09.29-.14.37,0-.02-.02-.04-.02-.06-.03-.06-.06-.12-.12-.19-.05-.07-.09-.09-.13-.13,0,0-.01,0-.01-.01,0,0-.01-.01-.02-.01,0,0-.02-.02-.03-.03-.01-.01-.02-.03-.04-.04-.15-.19-.17-.39-.2-.38-.01,0,0,.07,0,.17,0,0,0,0,0,.01,0,.12.02.24.05.35,0,.04.02.07.03.11,0,0,0,.02,0,.03,0,0,0,.01,0,.02.11.36.27.44.34.75,0,.01,0,.03.01.04.02.09.02.16.02.22,0,.04,0,.07,0,.1.05-.07.11-.17.17-.29.18-.33.32-.59.33-.86.01-.24-.08-.46-.18-.62,0,0-.01-.01-.01-.02-.02-.03-.04-.06-.06-.09-.04-.06-.09-.11-.12-.15.02.04.05.1.08.18"/><path class="cls-1" d="M102.29,7.55c-.13-.01-.22-.09-.05-.38,0,0-.24.18-.29.39-.02.06-.03.1-.05.14-.05.11-.1.14-.1.14,0,0,.07,0,.17-.02.07-.01.15-.03.24-.07.13-.05.27-.12.35-.24,0,0-.15.05-.27.04"/><path class="cls-1" d="M106.09,6.87c-.04.07-.07.12-.1.16-.13.18-.23.21-.23.21,0,0,.27-.06.46-.23.12-.1.2-.25.17-.44,0,0-.12-.03-.3.3"/><path class="cls-1" d="M107.7,6.75s0,0,0-.02c0-.04.02-.09.06-.16,0,0-.15.11-.19.25-.04.14-.09.18-.09.18,0,0,.02,0,.04,0,.04,0,.11-.02.19-.04.09-.03.19-.08.25-.16,0,0-.24.08-.26-.04"/><path class="cls-1" d="M109.4,6.86c-.08.13-.42.28-.42.28,0,0,.13,0,.28-.03.16-.04.35-.13.44-.32.03-.06.04-.13.05-.21,0,0-.28.15-.36.28"/><path class="cls-1" d="M125.66,7.75c.08.03.17.05.24.07.1.02.17.02.17.02,0,0-.05-.04-.1-.14-.02-.04-.03-.08-.05-.14-.06-.21-.29-.39-.29-.39.17.29.08.37-.05.38-.12.01-.27-.04-.27-.04.08.12.22.19.35.24"/><path class="cls-1" d="M121.64,7.01c.19.17.46.23.46.23,0,0-.1-.03-.23-.21-.03-.04-.07-.1-.1-.16-.18-.32-.3-.3-.3-.3-.04.19.05.34.17.44"/><path class="cls-1" d="M120.16,6.95c.07.03.15.04.19.04.03,0,.04,0,.04,0,0,0-.06-.04-.09-.18-.04-.14-.19-.25-.19-.25.04.07.06.12.06.16,0,0,0,.01,0,.02-.02.12-.26.04-.26.04.06.08.16.13.25.16"/><path class="cls-1" d="M118.46,6.86c-.08-.13-.36-.28-.36-.28,0,.08.02.15.05.21.09.2.28.29.44.32.15.04.28.03.28.03,0,0-.34-.15-.42-.28"/><path class="cls-1" d="M100.25,12.64s-.02-.08-.04-.12c0,0-.22.28-.24.45-.02.17-.3.48-.3.48,0,0,.09-.04.2-.11.19-.12.44-.35.37-.7"/><path class="cls-1" d="M99.68,16.73s-.05,0-.07-.01c-.1-.03-.15-.14,0-.42,0,0-.05.04-.11.1-.08.08-.18.2-.22.34-.05.2-.13.29-.16.31,0,0,0,0,0,0,0,0,.39-.03.67-.21.07-.04.13-.1.18-.16,0,0-.03.01-.08.02-.06.01-.14.03-.21.02"/><path class="cls-1" d="M104.37,15.95c-.05.02-.14.08-.26.24-.14.19-.25.27-.31.3-.03.01-.05.02-.05.02,0,0,.35-.03.54-.22.09-.08.14-.19.14-.34,0,0,0,0-.01,0-.01,0-.02,0-.05,0"/><path class="cls-1" d="M106.47,15.61c-.11.02-.2-.02-.15-.25,0-.03.01-.05.02-.08,0,0-.04.05-.08.12-.05.08-.09.18-.1.29,0,.17-.05.25-.06.28,0,0,0,0,0,0,0,0,.45-.14.59-.43,0,0,.01-.02.02-.03,0,0-.03.02-.07.04-.04.02-.1.04-.16.05"/><path class="cls-1" d="M127.99,13.34c.11.07.2.11.2.11,0,0-.28-.31-.3-.48-.02-.17-.24-.45-.24-.45-.02.04-.03.08-.04.12-.07.35.18.58.37.7"/><path class="cls-1" d="M128.08,16.85c.28.18.67.21.67.21,0,0,0,0,0,0-.02-.02-.1-.11-.16-.31-.04-.14-.14-.26-.22-.34-.06-.06-.11-.1-.11-.1.16.28.11.38,0,.42-.02,0-.05.01-.07.01-.07,0-.15,0-.21-.02-.05-.01-.08-.02-.08-.02.05.07.11.12.18.16"/><path class="cls-1" d="M124.12,16.5s-.02,0-.05-.02c-.06-.03-.17-.1-.31-.29-.12-.16-.21-.22-.26-.24-.02,0-.04-.01-.05,0,0,0-.01,0-.01,0,0,.15.05.26.14.34.2.19.55.22.55.22"/><path class="cls-1" d="M121.77,15.97h0s-.06-.12-.06-.28c0-.11-.05-.21-.1-.29-.04-.07-.08-.12-.08-.12,0,.03.02.06.02.08.05.23-.05.26-.15.25-.06,0-.11-.03-.16-.05s-.07-.04-.07-.04c0,.01,0,.02.01.03.15.29.59.43.59.43"/><path class="cls-1" d="M114.3.95c-.06-.05-.13-.09-.19-.13.07.04.13.08.19.13"/><polyline class="cls-1" points="109.95 7.13 109.95 7.13 109.95 7.13 109.95 7.13"/><polyline class="cls-1" points="110.04 6.97 110.04 6.97 110.04 6.98 110.04 6.97"/><path class="cls-1" d="M110.04,6.98s0,0,0,0h0Z"/><polyline class="cls-1" points="110.05 6.97 110.04 6.97 110.05 6.97"/><path class="cls-1" d="M110.04,6.98s0,0,0,0c0,0,0,0,0,.01,0,0,0-.01.01-.02"/><polyline class="cls-1" points="110.05 6.96 110.05 6.96 110.05 6.96"/><polyline class="cls-1" points="110.05 6.96 110.05 6.97 110.05 6.96"/><path class="cls-1" d="M110.06,6.94s0,0,0,0c0,0,0,.01-.01.02,0,0,0-.01.01-.02"/><path class="cls-1" d="M108.52,6.83s0,0,0,0c.08-.11.16-.23.25-.37-.09.13-.18.26-.25.36"/><polyline class="cls-1" points="110.03 7.01 110.02 7.01 110.03 7.01 110.03 7.01"/><path class="cls-1" d="M108.42,6.98s0,0,0,0c-.02.04-.06.08-.08.11.02-.03.05-.08.08-.11"/><path class="cls-1" d="M114.41,1.06s-.02-.02-.03-.03c0,0,.02.02.03.03"/></g></svg>