<?xml version="1.0" encoding="UTF-8"?>
<svg xmlns="http://www.w3.org/2000/svg" version="1.1" viewBox="0 0 60 60">
  <defs>
    <style>
      .cls-1 {
        fill: none;
        stroke: #999;
        stroke-linecap: round;
        stroke-linejoin: round;
        stroke-width: 3px;
      }
    </style>
  </defs>
  <!-- Generator: Adobe Illustrator 28.7.1, SVG Export Plug-In . SVG Version: 1.2.0 Build 142)  -->
  <g>
    <g id="Layer_1">
      <path class="cls-1" d="M30,25.1v-9.4M30,34.5h0M24.2,48.4l4.1,5.2c.6.8.9,1.2,1.3,1.3.3.1.7.1,1,0,.4-.1.7-.5,1.3-1.3l4.1-5.2c.8-1,1.2-1.6,1.7-2,.7-.5,1.4-.9,2.3-1.1.6-.1,1.3-.1,2.7-.1,3.9,0,5.8,0,7.4-.6,2-.8,3.7-2.4,4.5-4.3.6-1.5.6-3.3.6-7.1v-15.3c0-4.5,0-6.8-.9-8.5-.8-1.5-2.1-2.7-3.6-3.5-1.8-.9-4.1-.9-8.8-.9h-23.3c-4.7,0-7,0-8.8.9-1.6.8-2.8,2-3.6,3.5-.9,1.7-.9,4-.9,8.5v15.3c0,3.7,0,5.6.6,7.1.8,2,2.5,3.5,4.5,4.3,1.5.6,3.5.6,7.4.6s2,0,2.7.1c.8.2,1.6.6,2.3,1.1.5.4.9.9,1.7,2Z"/>
    </g>
  </g>
</svg>