<?xml version="1.0" encoding="UTF-8"?>
<svg xmlns="http://www.w3.org/2000/svg" version="1.1" viewBox="0 0 60 60">
  <defs>
    <style>
      .cls-1 {
        fill: none;
        stroke: #999;
        stroke-linecap: round;
        stroke-linejoin: round;
        stroke-width: 3.5px;
      }
    </style>
  </defs>
  <!-- Generator: Adobe Illustrator 28.7.1, SVG Export Plug-In . SVG Version: 1.2.0 Build 142)  -->
  <g>
    <g id="Layer_1">
      <path class="cls-1" d="M32.8,31.1H13.5c-3.7,0-5.5,0-6.9.7-1.2.7-2.2,1.7-2.9,3-.7,1.5-.7,3.4-.7,7.2v6.2c0,1.1,0,1.6,0,2,.3,1.8,1.7,3.2,3.4,3.6.4,0,.9,0,2,0h1.1c2.4,0,4.4-2,4.4-4.6s.5-1.1,1.1-1.1h23.9M32.8,17.4h-16c-1.8,0-2.7,0-3.5.3-.7.3-1.3.7-1.8,1.3-.5.7-.8,1.6-1.4,3.4l-2.8,8.7-4.4-2.3M9.6,38h6.6M49.1,11.9h0M49.1,18.7h0M49.1,25.6h0M49.1,32.4h4.3c1.3,0,1.9,0,2.4-.2.4-.2.8-.6,1-1,.2-.5.2-1.1.2-2.4V8.7c0-1.3,0-1.9-.2-2.4-.2-.4-.6-.8-1-1-.5-.2-1.1-.2-2.4-.2h-8.6c-1.3,0-1.9,0-2.4.2-.4.2-.8.6-1,1-.2.5-.2,1.1-.2,2.4v20.1c0,1.3,0,1.9.2,2.4.2.4.6.8,1,1,.5.2,1.1.2,2.4.2h4.3ZM49.1,32.4v20.2"/>
    </g>
  </g>
</svg>